<svg xmlns="http://www.w3.org/2000/svg" xmlns:xlink="http://www.w3.org/1999/xlink" width="800" zoomAndPan="magnify" viewBox="0 0 600 449.999984" height="600" preserveAspectRatio="xMidYMid meet" version="1.0"><defs><clipPath id="431abf30c1"><path d="M 202 63 L 419.171875 63 L 419.171875 251 L 202 251 Z M 202 63 " clip-rule="nonzero"/></clipPath><clipPath id="01cd98a19c"><path d="M 186 56.351562 L 403 56.351562 L 403 243 L 186 243 Z M 186 56.351562 " clip-rule="nonzero"/></clipPath><clipPath id="9fd0ec91d8"><path d="M 185 56.351562 L 403 56.351562 L 403 244 L 185 244 Z M 185 56.351562 " clip-rule="nonzero"/></clipPath><clipPath id="954ac9d6a5"><path d="M 186 56.351562 L 403 56.351562 L 403 91 L 186 91 Z M 186 56.351562 " clip-rule="nonzero"/></clipPath><clipPath id="a4ff0badea"><path d="M 212 118 L 394 118 L 394 378.101562 L 212 378.101562 Z M 212 118 " clip-rule="nonzero"/></clipPath><clipPath id="846fd2e77e"><path d="M 210 118 L 392 118 L 392 378.101562 L 210 378.101562 Z M 210 118 " clip-rule="nonzero"/></clipPath><clipPath id="34ddca1477"><path d="M 208 118 L 390 118 L 390 378.101562 L 208 378.101562 Z M 208 118 " clip-rule="nonzero"/></clipPath><clipPath id="64e9b5a172"><path d="M 207 118 L 388 118 L 388 378.101562 L 207 378.101562 Z M 207 118 " clip-rule="nonzero"/></clipPath><clipPath id="e4b8dae0aa"><path d="M 205 118 L 386 118 L 386 378.101562 L 205 378.101562 Z M 205 118 " clip-rule="nonzero"/></clipPath><clipPath id="864b6d64a2"><path d="M 203 117 L 384 117 L 384 378.101562 L 203 378.101562 Z M 203 117 " clip-rule="nonzero"/></clipPath><clipPath id="06448e3071"><path d="M 201 117 L 382 117 L 382 378.101562 L 201 378.101562 Z M 201 117 " clip-rule="nonzero"/></clipPath><clipPath id="69ba6ce9e7"><path d="M 201 117 L 382 117 L 382 378.101562 L 201 378.101562 Z M 201 117 " clip-rule="nonzero"/></clipPath><clipPath id="273ec64a4f"><path d="M 171.671875 110 L 340 110 L 340 362 L 171.671875 362 Z M 171.671875 110 " clip-rule="nonzero"/></clipPath><clipPath id="e284f1b4eb"><path d="M 171.671875 109 L 340 109 L 340 362 L 171.671875 362 Z M 171.671875 109 " clip-rule="nonzero"/></clipPath><clipPath id="caeabc21b2"><path d="M 171.671875 117 L 221 117 L 221 151 L 171.671875 151 Z M 171.671875 117 " clip-rule="nonzero"/></clipPath><clipPath id="c1f701bfc3"><path d="M 171.671875 122 L 221 122 L 221 156 L 171.671875 156 Z M 171.671875 122 " clip-rule="nonzero"/></clipPath><clipPath id="0ca49bd900"><path d="M 171.671875 126 L 221 126 L 221 160 L 171.671875 160 Z M 171.671875 126 " clip-rule="nonzero"/></clipPath><clipPath id="bcd186dc2a"><path d="M 171.671875 130 L 221 130 L 221 164 L 171.671875 164 Z M 171.671875 130 " clip-rule="nonzero"/></clipPath><clipPath id="41d4e88bd1"><path d="M 171.671875 134 L 221 134 L 221 168 L 171.671875 168 Z M 171.671875 134 " clip-rule="nonzero"/></clipPath><clipPath id="ce5e439ecf"><path d="M 171.671875 139 L 221 139 L 221 173 L 171.671875 173 Z M 171.671875 139 " clip-rule="nonzero"/></clipPath><clipPath id="3261206299"><path d="M 76.285156 324.726562 L 124.285156 324.726562 L 124.285156 390.726562 L 76.285156 390.726562 Z M 76.285156 324.726562 " clip-rule="nonzero"/></clipPath><clipPath id="cfe8de993c"><path d="M 107 324.726562 L 124.285156 324.726562 L 124.285156 342 L 107 342 Z M 107 324.726562 " clip-rule="nonzero"/></clipPath></defs><path fill="#ffffff" d="M 410.984375 64.132812 L 209.175781 77.808594 C 208.742188 77.855469 208.3125 77.941406 207.894531 78.066406 C 207.472656 78.191406 207.070312 78.351562 206.679688 78.550781 C 206.289062 78.75 205.921875 78.984375 205.574219 79.25 C 205.226562 79.515625 204.90625 79.8125 204.617188 80.136719 C 204.324219 80.464844 204.0625 80.8125 203.835938 81.1875 C 203.605469 81.558594 203.414062 81.949219 203.257812 82.359375 C 203.101562 82.769531 202.984375 83.1875 202.90625 83.617188 C 202.824219 84.050781 202.785156 84.484375 202.789062 84.921875 L 202.789062 228.339844 C 202.785156 228.796875 202.828125 229.253906 202.917969 229.703125 C 203.003906 230.152344 203.132812 230.589844 203.304688 231.015625 C 203.476562 231.441406 203.6875 231.84375 203.9375 232.230469 C 204.183594 232.613281 204.46875 232.972656 204.789062 233.300781 C 205.105469 233.632812 205.453125 233.929688 205.828125 234.191406 C 206.203125 234.453125 206.601562 234.679688 207.019531 234.867188 C 207.4375 235.050781 207.871094 235.195312 208.316406 235.300781 C 208.761719 235.402344 209.214844 235.460938 209.675781 235.480469 L 411.484375 250.160156 C 411.960938 250.175781 412.4375 250.144531 412.910156 250.066406 C 413.382812 249.988281 413.84375 249.863281 414.292969 249.691406 C 414.738281 249.519531 415.164062 249.304688 415.570312 249.046875 C 415.976562 248.789062 416.347656 248.496094 416.695312 248.160156 C 417.039062 247.828125 417.347656 247.464844 417.621094 247.070312 C 417.890625 246.675781 418.121094 246.257812 418.308594 245.816406 C 418.496094 245.375 418.636719 244.917969 418.730469 244.449219 C 418.828125 243.980469 418.875 243.503906 418.875 243.023438 L 418.875 71.230469 C 418.875 70.730469 418.824219 70.238281 418.71875 69.746094 C 418.613281 69.257812 418.460938 68.785156 418.257812 68.328125 C 418.054688 67.871094 417.804688 67.441406 417.507812 67.035156 C 417.214844 66.628906 416.882812 66.261719 416.511719 65.925781 C 416.136719 65.589844 415.734375 65.300781 415.300781 65.050781 C 414.867188 64.800781 414.414062 64.597656 413.9375 64.441406 C 413.460938 64.289062 412.976562 64.183594 412.476562 64.132812 C 411.980469 64.078125 411.484375 64.078125 410.984375 64.132812 Z M 410.984375 64.132812 " fill-opacity="1" fill-rule="nonzero"/><g clip-path="url(#431abf30c1)"><path stroke-linecap="round" transform="matrix(0.395115, 0, 0, 0.395072, 171.671949, 56.51125)" fill="none" stroke-linejoin="round" d="M 605.678092 19.291593 L 94.918804 53.90754 C 93.821418 54.026189 92.733918 54.243713 91.676076 54.560112 C 90.608349 54.87651 89.590053 55.281895 88.601417 55.786155 C 87.61278 56.290415 86.683462 56.883661 85.803575 57.556008 C 84.923689 58.228354 84.113007 58.9798 83.381416 59.800458 C 82.639939 60.631003 81.977552 61.510986 81.404143 62.460181 C 80.820847 63.399488 80.336415 64.388232 79.940961 65.426414 C 79.545506 66.464596 79.248915 67.522553 79.051188 68.610172 C 78.843574 69.707678 78.744711 70.805185 78.754597 71.912579 L 78.754597 434.930145 C 78.744711 436.086976 78.853461 437.243807 79.080847 438.380864 C 79.298347 439.51792 79.624597 440.625314 80.059597 441.703045 C 80.494597 442.780777 81.028461 443.799184 81.661188 444.778041 C 82.284029 445.747011 83.005734 446.656656 83.816416 447.487201 C 84.617212 448.327634 85.497098 449.07908 86.446189 449.741539 C 87.39528 450.403998 88.40369 450.977469 89.461531 451.452067 C 90.519372 451.916777 91.616758 452.282612 92.743804 452.549573 C 93.87085 452.806647 95.017668 452.954959 96.184259 453.004396 L 606.943547 490.161416 C 608.149683 490.200966 609.35582 490.121867 610.55207 489.924118 C 611.74832 489.726369 612.914912 489.409971 614.051844 488.974923 C 615.178889 488.539875 616.256503 487.996066 617.284685 487.343494 C 618.312867 486.690923 619.252072 485.949365 620.131958 485.099044 C 621.001958 484.258611 621.782981 483.339079 622.475027 482.340447 C 623.157186 481.341815 623.740481 480.283858 624.215027 479.166577 C 624.689573 478.049296 625.045482 476.892464 625.282754 475.705971 C 625.529914 474.519477 625.64855 473.313209 625.64855 472.097053 L 625.64855 37.257082 C 625.64855 35.991489 625.520027 34.74567 625.253095 33.499852 C 624.986163 32.263922 624.600595 31.067541 624.086504 29.91071 C 623.572413 28.753878 622.939686 27.666259 622.188322 26.637965 C 621.446845 25.609671 620.606504 24.680251 619.667299 23.82993 C 618.718208 22.97961 617.699912 22.247939 616.602526 21.615143 C 615.505139 20.982346 614.358321 20.468199 613.152184 20.072701 C 611.946048 19.687091 610.720138 19.42013 609.454684 19.291593 C 608.199115 19.153169 606.943547 19.153169 605.678092 19.291593 Z M 605.678092 19.291593 " stroke="#0c3d3c" stroke-width="1.39" stroke-opacity="1" stroke-miterlimit="4"/></g><path stroke-linecap="round" transform="matrix(0.395115, 0, 0, 0.395072, 171.671949, 56.51125)" fill-opacity="1" fill="#ffffff" fill-rule="nonzero" stroke-linejoin="round" d="M 601.871842 17.610727 L 91.112554 52.226674 C 90.005281 52.345324 88.927667 52.562848 87.859939 52.879246 C 86.802098 53.195644 85.773916 53.601029 84.795166 54.105289 C 83.80653 54.609549 82.877211 55.202795 81.997325 55.875142 C 81.117438 56.547488 80.306756 57.298934 79.565279 58.119592 C 78.823802 58.950137 78.171301 59.83012 77.588006 60.779315 C 77.014597 61.718622 76.530165 62.717254 76.13471 63.745549 C 75.739256 64.78373 75.432778 65.841687 75.235051 66.929306 C 75.037324 68.026812 74.93846 69.124319 74.93846 70.231713 L 74.93846 433.229505 C 74.93846 434.386336 75.04721 435.543167 75.26471 436.680223 C 75.492097 437.817279 75.818347 438.924673 76.253347 440.002405 C 76.67846 441.080136 77.212324 442.098543 77.845051 443.0774 C 78.477779 444.04637 79.199483 444.956015 80.000279 445.78656 C 80.810961 446.626993 81.680961 447.378439 82.630052 448.040898 C 83.58903 448.703357 84.587553 449.276829 85.645394 449.751426 C 86.713121 450.216136 87.800621 450.581972 88.937553 450.848933 C 90.064599 451.106006 91.211417 451.264205 92.368122 451.303755 L 603.12741 488.460776 C 604.343433 488.500326 605.549569 488.421226 606.74582 488.223477 C 607.94207 488.025728 609.108661 487.70933 610.235707 487.274282 C 611.372639 486.839235 612.450252 486.295425 613.468548 485.642854 C 614.49673 484.990282 615.445821 484.238837 616.315821 483.398404 C 617.185821 482.557971 617.966844 481.638438 618.65889 480.639806 C 619.341049 479.631287 619.924344 478.57333 620.39889 477.465936 C 620.873436 476.348655 621.229345 475.191824 621.476504 474.00533 C 621.713777 472.818837 621.842299 471.612568 621.842299 470.396413 L 621.842299 35.576216 C 621.842299 34.310623 621.70389 33.064805 621.446845 31.818987 C 621.179913 30.583056 620.784458 29.386675 620.270367 28.229844 C 619.756276 27.073013 619.123549 25.985394 618.382072 24.957099 C 617.640594 23.938692 616.790367 22.999385 615.851162 22.149065 C 614.911957 21.308632 613.893662 20.567073 612.796275 19.934277 C 611.698889 19.30148 610.55207 18.787333 609.345934 18.391835 C 608.139797 18.006225 606.904001 17.739264 605.648433 17.610727 C 604.392865 17.48219 603.12741 17.48219 601.871842 17.610727 Z M 601.871842 17.610727 " stroke="#0c3d3c" stroke-width="1.39" stroke-opacity="1" stroke-miterlimit="4"/><path stroke-linecap="round" transform="matrix(0.395115, 0, 0, 0.395072, 171.671949, 56.51125)" fill-opacity="1" fill="#ffffff" fill-rule="nonzero" stroke-linejoin="round" d="M 598.055705 15.929861 L 87.296417 50.545809 C 86.19903 50.664458 85.121416 50.881982 84.053689 51.19838 C 82.995848 51.514778 81.967666 51.920164 80.979029 52.424423 C 80.000279 52.928683 79.061074 53.52193 78.181188 54.194276 C 77.311188 54.866622 76.500506 55.618068 75.759028 56.448614 C 75.017551 57.269272 74.355165 58.149254 73.781755 59.098449 C 73.19846 60.047644 72.714028 61.036388 72.318573 62.064683 C 71.923119 63.102865 71.626528 64.160821 71.4288 65.258328 C 71.231073 66.345947 71.132209 67.443453 71.132209 68.550847 L 71.132209 431.548639 C 71.132209 432.70547 71.240959 433.862301 71.458459 434.999357 C 71.685846 436.136414 72.012096 437.243807 72.447096 438.321539 C 72.882096 439.389383 73.41596 440.417677 74.038801 441.386647 C 74.671528 442.365504 75.393233 443.265262 76.194028 444.095807 C 77.00471 444.93624 77.884597 445.687686 78.833688 446.350145 C 79.782779 447.012604 80.781302 447.586076 81.839143 448.060673 C 82.90687 448.525383 83.994371 448.891218 85.131303 449.158179 C 86.258348 449.415253 87.405167 449.573452 88.561871 449.613002 L 599.321159 486.770023 C 600.527296 486.809572 601.733432 486.730473 602.929683 486.532724 C 604.125933 486.325088 605.282638 486.008689 606.41957 485.573642 C 607.546615 485.138594 608.624229 484.594785 609.642525 483.942213 C 610.670707 483.289642 611.609911 482.548083 612.479911 481.697763 C 613.349912 480.85733 614.130934 479.937798 614.82298 478.939166 C 615.505139 477.940534 616.088435 476.882577 616.56298 475.775183 C 617.037526 474.657902 617.393435 473.501071 617.630708 472.314577 C 617.877867 471.128084 617.996503 469.931703 617.996503 468.715547 L 617.996503 33.89535 C 617.996503 32.639645 617.867981 31.383939 617.601049 30.148008 C 617.344003 28.912078 616.948549 27.715697 616.434458 26.558865 C 615.920367 25.402034 615.287639 24.314415 614.546162 23.286121 C 613.804684 22.267714 612.964343 21.328407 612.025139 20.487974 C 611.085934 19.637654 610.067638 18.896095 608.970252 18.263299 C 607.872865 17.630502 606.726047 17.116355 605.529797 16.720857 C 604.32366 16.335247 603.087864 16.068286 601.832296 15.939749 C 600.576728 15.801325 599.321159 15.801325 598.055705 15.929861 Z M 598.055705 15.929861 " stroke="#0c3d3c" stroke-width="1.39" stroke-opacity="1" stroke-miterlimit="4"/><path stroke-linecap="round" transform="matrix(0.395115, 0, 0, 0.395072, 171.671949, 56.51125)" fill-opacity="1" fill="#ffffff" fill-rule="nonzero" stroke-linejoin="round" d="M 594.249454 14.248996 L 83.490166 48.864943 C 82.392779 48.973705 81.305279 49.191229 80.247438 49.507627 C 79.179711 49.824025 78.161415 50.22941 77.172779 50.73367 C 76.184142 51.23793 75.254824 51.831177 74.374937 52.503523 C 73.495051 53.175869 72.684369 53.927315 71.942891 54.75786 C 71.2113 55.578518 70.548914 56.458501 69.975505 57.407696 C 69.392209 58.356891 68.907777 59.345635 68.512323 60.37393 C 68.116868 61.412111 67.820277 62.470068 67.612663 63.567574 C 67.414936 64.655194 67.316072 65.7527 67.316072 66.860094 L 67.316072 429.857886 C 67.316072 431.024604 67.424822 432.171548 67.652209 433.308604 C 67.869709 434.44566 68.195959 435.553054 68.630959 436.630786 C 69.065959 437.708517 69.599823 438.726924 70.23255 439.705781 C 70.865278 440.674751 71.577096 441.574509 72.387778 442.414941 C 73.188573 443.245487 74.06846 443.996933 75.017551 444.659392 C 75.966642 445.331738 76.975051 445.895322 78.032892 446.36992 C 79.090733 446.844517 80.18812 447.210353 81.315166 447.467426 C 82.442211 447.7245 83.58903 447.882699 84.745734 447.922249 L 595.514909 485.099044 C 596.721045 485.138594 597.927182 485.059495 599.123432 484.861746 C 600.329569 484.663997 601.49616 484.347598 602.623205 483.902663 C 603.760137 483.467616 604.837751 482.923806 605.865933 482.271235 C 606.884229 481.618663 607.83332 480.867218 608.70332 480.026785 C 609.583206 479.176464 610.364229 478.256932 611.046388 477.2583 C 611.728548 476.24978 612.311843 475.191824 612.786389 474.074542 C 613.260934 472.957261 613.616843 471.80043 613.854116 470.604049 C 614.091389 469.417556 614.210025 468.211287 614.210025 466.995131 L 614.210025 32.224372 C 614.210025 30.948891 614.081503 29.703073 613.814571 28.457255 C 613.557525 27.221324 613.162071 26.024943 612.64798 24.868112 C 612.133889 23.711281 611.511048 22.623662 610.759684 21.595368 C 610.018207 20.567073 609.177865 19.637654 608.238661 18.787333 C 607.28957 17.937013 606.271274 17.205342 605.173888 16.562658 C 604.076501 15.929861 602.929683 15.425602 601.723546 15.030104 C 600.517409 14.644493 599.2915 14.377532 598.026045 14.248996 C 596.770477 14.120459 595.505022 14.120459 594.249454 14.248996 Z M 594.249454 14.248996 " stroke="#0c3d3c" stroke-width="1.39" stroke-opacity="1" stroke-miterlimit="4"/><path stroke-linecap="round" transform="matrix(0.395115, 0, 0, 0.395072, 171.671949, 56.51125)" fill-opacity="1" fill="#ffffff" fill-rule="nonzero" stroke-linejoin="round" d="M 590.443203 12.56813 L 79.683915 47.184077 C 78.576642 47.292839 77.499029 47.510363 76.431301 47.826761 C 75.37346 48.143159 74.345278 48.548545 73.356642 49.052804 C 72.368005 49.557064 71.438687 50.150311 70.5588 50.822657 C 69.678914 51.495003 68.868232 52.246449 68.126754 53.067107 C 67.395163 53.897653 66.732777 54.777635 66.149481 55.72683 C 65.576072 56.666137 65.09164 57.664769 64.696186 58.693064 C 64.300731 59.731246 63.994254 60.789202 63.796526 61.886709 C 63.598799 62.974328 63.499935 64.071834 63.499935 65.179228 L 63.499935 428.17702 C 63.499935 429.343738 63.608685 430.490682 63.836072 431.627738 C 64.053572 432.764795 64.379822 433.872188 64.814822 434.94992 C 65.249822 436.027652 65.783686 437.046059 66.416413 438.024916 C 67.049141 438.993885 67.760959 439.90353 68.571641 440.734076 C 69.372436 441.564621 70.252323 442.316067 71.201414 442.978526 C 72.160391 443.650872 73.158914 444.214457 74.216755 444.689054 C 75.284483 445.163651 76.371983 445.529487 77.508915 445.78656 C 78.635961 446.053521 79.782779 446.201833 80.939484 446.241383 L 591.698772 483.408291 C 592.914795 483.457728 594.120931 483.378629 595.317181 483.170992 C 596.513432 482.973243 597.670136 482.656845 598.807068 482.221798 C 599.934114 481.78675 601.011728 481.242941 602.03991 480.600257 C 603.058205 479.947685 604.007296 479.196239 604.887183 478.355806 C 605.757183 477.515374 606.538206 476.595841 607.220365 475.597209 C 607.912411 474.58869 608.48582 473.54062 608.960365 472.423339 C 609.434911 471.306058 609.79082 470.149227 610.037979 468.962733 C 610.275252 467.77624 610.403775 466.569971 610.403775 465.363703 L 610.403775 30.543506 C 610.403775 29.277913 610.265366 28.022207 610.00832 26.786277 C 609.741388 25.540459 609.35582 24.344078 608.841729 23.187247 C 608.327638 22.030415 607.694911 20.942796 606.953433 19.914502 C 606.211956 18.896095 605.361728 17.956788 604.422524 17.106467 C 603.483319 16.256147 602.465023 15.524476 601.367637 14.89168 C 600.27025 14.258883 599.123432 13.744736 597.917295 13.349238 C 596.711159 12.963628 595.475363 12.696667 594.219795 12.56813 C 592.95434 12.439593 591.698772 12.439593 590.443203 12.56813 Z M 590.443203 12.56813 " stroke="#0c3d3c" stroke-width="1.39" stroke-opacity="1" stroke-miterlimit="4"/><path stroke-linecap="round" transform="matrix(0.395115, 0, 0, 0.395072, 171.671949, 56.51125)" fill-opacity="1" fill="#ffffff" fill-rule="nonzero" stroke-linejoin="round" d="M 586.627066 10.887264 L 75.867778 45.503211 C 74.770392 45.611973 73.682892 45.829497 72.625051 46.145895 C 71.557323 46.462294 70.539028 46.867679 69.550391 47.371939 C 68.561754 47.876198 67.632436 48.469445 66.75255 49.141791 C 65.872663 49.814138 65.061981 50.565583 64.320504 51.386241 C 63.579026 52.216787 62.91664 53.09677 62.343231 54.045964 C 61.769822 54.995159 61.275503 55.983904 60.880049 57.012198 C 60.484594 58.05038 60.188003 59.108337 59.990276 60.205843 C 59.782662 61.293462 59.683798 62.390968 59.693685 63.498362 L 59.693685 426.496154 C 59.693685 427.662873 59.802435 428.809816 60.019935 429.946873 C 60.247321 431.083929 60.573571 432.191323 61.008571 433.269054 C 61.443571 434.346786 61.977435 435.365193 62.600276 436.34405 C 63.233004 437.31302 63.954708 438.222665 64.76539 439.05321 C 65.566186 439.883755 66.446072 440.635201 67.395163 441.307548 C 68.344254 441.970006 69.352664 442.533591 70.410505 443.008188 C 71.468346 443.482786 72.565732 443.848621 73.692778 444.105695 C 74.82971 444.372656 75.966642 444.520967 77.133233 444.560517 L 587.892521 481.70765 C 589.098658 481.757088 590.304794 481.677988 591.501044 481.470352 C 592.697295 481.272603 593.863886 480.956205 594.990931 480.521157 C 596.127863 480.086109 597.205477 479.552187 598.233659 478.899616 C 599.251955 478.247044 600.201046 477.495599 601.071046 476.655166 C 601.941046 475.814733 602.722069 474.8952 603.414115 473.896568 C 604.096274 472.897936 604.679569 471.83998 605.154115 470.722698 C 605.62866 469.605417 605.984569 468.448586 606.231729 467.262092 C 606.469001 466.075599 606.587638 464.869331 606.587638 463.663062 L 606.587638 28.86264 C 606.587638 27.597047 606.459115 26.341342 606.192183 25.105411 C 605.935138 23.859593 605.549569 22.663212 605.025592 21.506381 C 604.511501 20.34955 603.88866 19.261931 603.137296 18.233636 C 602.395819 17.215229 601.555478 16.275922 600.616273 15.425602 C 599.677068 14.585169 598.648886 13.84361 597.561386 13.210814 C 596.464 12.578017 595.307295 12.06387 594.101158 11.668372 C 592.904908 11.282762 591.669113 11.015801 590.403658 10.887264 C 589.148089 10.758727 587.892521 10.758727 586.627066 10.887264 Z M 586.627066 10.887264 " stroke="#0c3d3c" stroke-width="1.39" stroke-opacity="1" stroke-miterlimit="4"/><path stroke-linecap="round" transform="matrix(0.395115, 0, 0, 0.395072, 171.671949, 56.51125)" fill-opacity="1" fill="#ffffff" fill-rule="nonzero" stroke-linejoin="round" d="M 582.820816 9.196511 L 72.061528 43.822346 C 70.954255 43.931107 69.876641 44.148631 68.808914 44.46503 C 67.751073 44.781428 66.722891 45.186813 65.734254 45.691073 C 64.755504 46.195333 63.816299 46.788579 62.936413 47.460926 C 62.066413 48.133272 61.255731 48.884718 60.514253 49.715263 C 59.772776 50.535921 59.110389 51.415904 58.53698 52.365099 C 57.953685 53.314293 57.469253 54.303038 57.073798 55.331332 C 56.678343 56.369514 56.381752 57.437358 56.174139 58.524977 C 55.976412 59.612596 55.877548 60.710103 55.877548 61.817497 L 55.877548 424.835063 C 55.877548 426.001782 55.996184 427.148725 56.213684 428.285782 C 56.431184 429.422838 56.767321 430.530232 57.202321 431.607963 C 57.637321 432.685695 58.161298 433.704102 58.794026 434.682959 C 59.426753 435.651929 60.148458 436.551686 60.95914 437.392119 C 61.759935 438.222665 62.639822 438.97411 63.588913 439.636569 C 64.538004 440.308916 65.546413 440.8725 66.604254 441.347097 C 67.662095 441.821695 68.759482 442.18753 69.886527 442.444604 C 71.013573 442.711565 72.160391 442.859877 73.317096 442.899426 L 584.076384 480.04656 C 585.292407 480.095997 586.498544 480.016897 587.694794 479.809261 C 588.891044 479.611512 590.047749 479.295114 591.184681 478.860066 C 592.311726 478.425019 593.38934 477.881209 594.417522 477.228638 C 595.435818 476.585954 596.384909 475.834508 597.254909 474.994075 C 598.134795 474.153642 598.915818 473.23411 599.597978 472.22559 C 600.290023 471.226958 600.863432 470.169001 601.337978 469.061607 C 601.812523 467.944326 602.178319 466.787495 602.415592 465.601002 C 602.662751 464.414508 602.781387 463.20824 602.781387 462.001971 L 602.781387 27.171887 C 602.781387 25.906294 602.652864 24.650588 602.385933 23.414658 C 602.119001 22.178727 601.733432 20.972459 601.219341 19.815628 C 600.70525 18.658796 600.072523 17.571177 599.331046 16.55277 C 598.579682 15.524476 597.739341 14.585169 596.800136 13.744736 C 595.860931 12.894416 594.842636 12.152857 593.745249 11.520061 C 592.647863 10.887264 591.501044 10.373117 590.294908 9.987507 C 589.088771 9.592009 587.852976 9.334935 586.597407 9.196511 C 585.341839 9.067974 584.076384 9.067974 582.820816 9.196511 Z M 582.820816 9.196511 " stroke="#0c3d3c" stroke-width="1.39" stroke-opacity="1" stroke-miterlimit="4"/><path stroke-linecap="round" transform="matrix(0.395115, 0, 0, 0.395072, 171.671949, 56.51125)" fill-opacity="1" fill="#ffffff" fill-rule="nonzero" stroke-linejoin="round" d="M 579.004679 7.515645 L 68.245391 42.14148 C 67.148004 42.260129 66.07039 42.467766 65.002663 42.784164 C 63.944822 43.100562 62.91664 43.505947 61.928003 44.010207 C 60.939367 44.514467 60.010049 45.107713 59.130162 45.78006 C 58.250276 46.452406 57.439594 47.203852 56.698116 48.034397 C 55.956639 48.855055 55.304139 49.735038 54.720843 50.684233 C 54.147434 51.633428 53.663002 52.622172 53.257661 53.660354 C 52.862206 54.688648 52.565615 55.756492 52.367888 56.844111 C 52.170161 57.93173 52.071297 59.029237 52.071297 60.136631 L 52.071297 423.164085 C 52.071297 424.320916 52.189934 425.46786 52.407434 426.604916 C 52.63482 427.732085 52.96107 428.839479 53.39607 429.91721 C 53.83107 430.985054 54.37482 432.003461 54.997661 432.972431 C 55.630389 433.941401 56.352093 434.851046 57.162775 435.681591 C 57.963571 436.512136 58.843457 437.253695 59.792548 437.916154 C 60.74164 438.578613 61.740162 439.152084 62.798004 439.616794 C 63.855845 440.091392 64.953231 440.44734 66.080277 440.714301 C 67.207322 440.971374 68.354141 441.119686 69.510846 441.159236 L 580.270133 478.316257 C 581.486156 478.365694 582.682407 478.286594 583.878657 478.088845 C 585.074907 477.891096 586.241498 477.574698 587.37843 477.139651 C 588.505476 476.71449 589.58309 476.170681 590.611272 475.518109 C 591.629567 474.875426 592.578658 474.12398 593.458545 473.283547 C 594.328545 472.443114 595.109568 471.523581 595.801613 470.534837 C 596.483772 469.536205 597.067068 468.478248 597.5515 467.360967 C 598.026045 466.243685 598.381955 465.096742 598.629114 463.910248 C 598.876273 462.723755 598.994909 461.517486 599.004796 460.311218 L 599.004796 25.491021 C 599.004796 24.225428 598.866386 22.969723 598.609341 21.723905 C 598.342409 20.487974 597.946955 19.291593 597.432864 18.124874 C 596.918773 16.968043 596.286045 15.880424 595.544568 14.85213 C 594.793204 13.833723 593.952863 12.894416 593.003772 12.044095 C 592.064567 11.193775 591.046272 10.462104 589.938999 9.829307 C 588.841612 9.196511 587.694794 8.682364 586.488657 8.286866 C 585.282521 7.901256 584.046725 7.644182 582.78127 7.515645 C 581.525702 7.377221 580.260247 7.387108 579.004679 7.515645 Z M 579.004679 7.515645 " stroke="#0c3d3c" stroke-width="1.39" stroke-opacity="1" stroke-miterlimit="4"/><path stroke-linecap="round" transform="matrix(0.395115, 0, 0, 0.395072, 171.671949, 56.51125)" fill-opacity="1" fill="#ffffff" fill-rule="nonzero" stroke-linejoin="round" d="M 575.188542 5.844667 L 64.429254 40.460614 C 63.331867 40.579263 62.244367 40.796787 61.186526 41.103298 C 60.118799 41.419696 59.100503 41.834969 58.111866 42.339229 C 57.12323 42.843488 56.193912 43.426848 55.314025 44.109081 C 54.434139 44.781428 53.623457 45.532874 52.891866 46.353532 C 52.150388 47.17419 51.488002 48.06406 50.914592 49.003367 C 50.331297 49.952562 49.846865 50.941306 49.45141 51.979488 C 49.055956 53.007783 48.759365 54.075627 48.561638 55.163246 C 48.354024 56.250865 48.25516 57.348371 48.25516 58.455765 L 48.25516 421.483219 C 48.265047 422.64005 48.373797 423.786994 48.601183 424.92405 C 48.818683 426.051219 49.154819 427.158613 49.58982 428.226457 C 50.02482 429.304189 50.558683 430.322595 51.191411 431.291565 C 51.824138 432.260535 52.535956 433.160292 53.346638 433.990838 C 54.147434 434.821383 55.02732 435.572829 55.976412 436.235288 C 56.925503 436.897747 57.924025 437.461331 58.981867 437.935929 C 60.039708 438.400639 61.137094 438.766474 62.26414 439.033435 C 63.391185 439.290509 64.538004 439.43882 65.694709 439.47837 L 576.453996 476.635391 C 577.660133 476.684828 578.86627 476.605729 580.06252 476.40798 C 581.25877 476.200343 582.425361 475.883945 583.562293 475.448897 C 584.689339 475.023737 585.766953 474.479928 586.795135 473.827356 C 587.81343 473.174785 588.762521 472.423339 589.642408 471.582906 C 590.512408 470.742473 591.293431 469.822941 591.97559 468.814421 C 592.667635 467.815789 593.250931 466.757833 593.725477 465.640551 C 594.200022 464.52327 594.555931 463.376326 594.793204 462.179945 C 595.040363 460.993452 595.159 459.797071 595.159 458.580915 L 595.159 23.810156 C 595.159 22.544563 595.030477 21.288857 594.763545 20.052926 C 594.496613 18.816996 594.111045 17.620615 593.596954 16.463783 C 593.082863 15.306952 592.450135 14.209446 591.698772 13.191039 C 590.957294 12.162745 590.116953 11.223437 589.177749 10.383004 C 588.228657 9.532684 587.210362 8.791126 586.112975 8.158329 C 585.015589 7.525533 583.86877 7.011385 582.662634 6.625775 C 581.456497 6.230277 580.230588 5.973204 578.965133 5.844667 C 577.709565 5.706243 576.453996 5.706243 575.188542 5.844667 Z M 575.188542 5.844667 " stroke="#0c3d3c" stroke-width="1.39" stroke-opacity="1" stroke-miterlimit="4"/><path stroke-linecap="round" transform="matrix(0.395115, 0, 0, 0.395072, 171.671949, 56.51125)" fill-opacity="1" fill="#ffffff" fill-rule="nonzero" stroke-linejoin="round" d="M 571.382291 4.163801 L 60.623003 38.779748 C 59.51573 38.898398 58.438116 39.115921 57.370389 39.422432 C 56.312548 39.738831 55.284366 40.154103 54.305616 40.658363 C 53.316979 41.162623 52.377775 41.745982 51.507774 42.418328 C 50.627888 43.100562 49.817206 43.852008 49.075729 44.672666 C 48.334251 45.493324 47.671865 46.383194 47.098456 47.322501 C 46.525046 48.271696 46.030728 49.260441 45.635273 50.298622 C 45.239819 51.326917 44.943228 52.394761 44.745501 53.48238 C 44.547773 54.569999 44.44891 55.667505 44.44891 56.784787 L 44.44891 419.782578 C 44.44891 420.93941 44.55766 422.086353 44.785046 423.22341 C 45.002546 424.360466 45.328796 425.46786 45.763796 426.545591 C 46.198796 427.623323 46.73266 428.64173 47.365387 429.620587 C 47.998115 430.589557 48.709933 431.499202 49.520615 432.329747 C 50.321411 433.160292 51.201297 433.911738 52.150388 434.584085 C 53.099479 435.246543 54.107888 435.810128 55.16573 436.284725 C 56.223571 436.759323 57.320957 437.125158 58.448003 437.382232 C 59.575048 437.649193 60.721867 437.797504 61.878572 437.837054 L 572.637859 475.003962 C 573.853882 475.043512 575.050133 474.964413 576.246383 474.766664 C 577.442633 474.568915 578.599338 474.252516 579.73627 473.817469 C 580.863315 473.382421 581.940929 472.838612 582.959225 472.195928 C 583.987407 471.543356 584.936498 470.801798 585.806498 469.961365 C 586.676498 469.120932 587.457521 468.2014 588.149567 467.202768 C 588.831726 466.214023 589.415021 465.156066 589.889567 464.038785 C 590.364112 462.931391 590.729908 461.784447 590.977067 460.597954 C 591.224226 459.411461 591.342863 458.21508 591.352749 456.998924 L 591.352749 22.12929 C 591.352749 20.863697 591.21434 19.607991 590.957294 18.37206 C 590.690362 17.13613 590.304794 15.929861 589.790703 14.77303 C 589.266726 13.616199 588.643885 12.52858 587.892521 11.510173 C 587.151044 10.481879 586.310703 9.542572 585.371498 8.702139 C 584.422407 7.851818 583.404111 7.11026 582.306725 6.477463 C 581.209338 5.844667 580.06252 5.33052 578.856383 4.944909 C 577.650247 4.549411 576.414451 4.292338 575.158883 4.153914 C 573.903314 4.025377 572.637859 4.025377 571.382291 4.163801 Z M 571.382291 4.163801 " stroke="#0c3d3c" stroke-width="1.39" stroke-opacity="1" stroke-miterlimit="4"/><path stroke-linecap="round" transform="matrix(0.395115, 0, 0, 0.395072, 171.671949, 56.51125)" fill-opacity="1" fill="#ffffff" fill-rule="nonzero" stroke-linejoin="round" d="M 567.566154 2.482935 L 56.806866 37.088995 C 55.70948 37.207644 54.621979 37.425168 53.564138 37.741566 C 52.506297 38.057965 51.478115 38.46335 50.489479 38.96761 C 49.500842 39.471869 48.571524 40.055229 47.691637 40.737463 C 46.821637 41.409809 46.010955 42.161255 45.269478 42.981913 C 44.528001 43.812458 43.865614 44.692441 43.292205 45.641636 C 42.708909 46.580943 42.224477 47.569687 41.829023 48.607869 C 41.433568 49.646051 41.136977 50.704008 40.93925 51.791627 C 40.741523 52.879246 40.642659 53.98664 40.642659 55.094034 L 40.642659 418.091825 C 40.642659 419.248656 40.751409 420.3956 40.968909 421.532656 C 41.186409 422.6796 41.522546 423.786994 41.947659 424.854838 C 42.382659 425.93257 42.916523 426.960864 43.54925 427.929834 C 44.181978 428.908691 44.903682 429.808448 45.704478 430.638994 C 46.51516 431.479427 47.38516 432.230872 48.334251 432.893331 C 49.283342 433.55579 50.291751 434.129262 51.349593 434.593972 C 52.407434 435.068569 53.50482 435.434405 54.631866 435.701366 C 55.768798 435.958439 56.915616 436.106751 58.072321 436.146301 L 568.831609 473.313209 C 570.037745 473.352759 571.243882 473.273659 572.440132 473.07591 C 573.636382 472.868274 574.802973 472.551876 575.939905 472.116828 C 577.066951 471.681781 578.144565 471.137971 579.172747 470.495287 C 580.191043 469.842716 581.140134 469.09127 582.02002 468.250837 C 582.89002 467.410404 583.671043 466.480984 584.353202 465.482352 C 585.045248 464.48372 585.628543 463.425763 586.103089 462.308482 C 586.577634 461.191201 586.933544 460.044257 587.170816 458.857764 C 587.417976 457.661383 587.536612 456.465002 587.536612 455.248846 L 587.536612 20.448424 C 587.536612 19.182831 587.408089 17.927125 587.141157 16.691195 C 586.884112 15.455264 586.488657 14.258883 585.974566 13.102052 C 585.460475 11.945221 584.827748 10.847714 584.08627 9.829307 C 583.344793 8.801013 582.494566 7.861706 581.555361 7.021273 C 580.616156 6.170953 579.597861 5.429394 578.500474 4.796598 C 577.403088 4.163801 576.246383 3.649654 575.050133 3.264044 C 573.843996 2.868546 572.6082 2.611472 571.352632 2.473048 C 570.087177 2.344511 568.831609 2.344511 567.566154 2.482935 Z M 567.566154 2.482935 " stroke="#0c3d3c" stroke-width="1.39" stroke-opacity="1" stroke-miterlimit="4"/><g clip-path="url(#01cd98a19c)"><path fill="#ffffff" d="M 394.421875 56.828125 L 192.613281 70.5 C 192.179688 70.546875 191.75 70.632812 191.332031 70.757812 C 190.910156 70.882812 190.507812 71.042969 190.117188 71.242188 C 189.726562 71.441406 189.359375 71.675781 189.011719 71.941406 C 188.664062 72.207031 188.34375 72.503906 188.050781 72.828125 C 187.761719 73.15625 187.5 73.503906 187.269531 73.878906 C 187.042969 74.25 186.851562 74.640625 186.695312 75.050781 C 186.539062 75.460938 186.421875 75.878906 186.339844 76.308594 C 186.261719 76.742188 186.222656 77.175781 186.222656 77.613281 L 186.222656 221.03125 C 186.222656 221.488281 186.265625 221.941406 186.355469 222.394531 C 186.441406 222.84375 186.570312 223.28125 186.742188 223.707031 C 186.914062 224.128906 187.125 224.535156 187.375 224.917969 C 187.625 225.304688 187.90625 225.660156 188.226562 225.988281 C 188.542969 226.320312 188.890625 226.617188 189.265625 226.878906 C 189.640625 227.140625 190.039062 227.367188 190.457031 227.554688 C 190.875 227.738281 191.308594 227.882812 191.753906 227.988281 C 192.199219 228.089844 192.652344 228.148438 193.109375 228.164062 L 394.910156 242.84375 C 395.390625 242.859375 395.867188 242.828125 396.339844 242.75 C 396.8125 242.671875 397.273438 242.546875 397.71875 242.375 C 398.167969 242.203125 398.59375 241.988281 398.996094 241.730469 C 399.402344 241.472656 399.777344 241.179688 400.121094 240.847656 C 400.464844 240.511719 400.773438 240.148438 401.042969 239.753906 C 401.316406 239.359375 401.546875 238.941406 401.734375 238.5 C 401.921875 238.058594 402.0625 237.605469 402.15625 237.136719 C 402.253906 236.664062 402.300781 236.191406 402.300781 235.710938 L 402.300781 63.925781 C 402.300781 63.425781 402.25 62.933594 402.144531 62.441406 C 402.042969 61.953125 401.886719 61.480469 401.683594 61.023438 C 401.480469 60.566406 401.234375 60.136719 400.941406 59.730469 C 400.644531 59.328125 400.3125 58.957031 399.941406 58.625 C 399.570312 58.289062 399.167969 57.996094 398.734375 57.746094 C 398.300781 57.496094 397.847656 57.292969 397.371094 57.140625 C 396.898438 56.984375 396.410156 56.878906 395.914062 56.828125 C 395.417969 56.777344 394.917969 56.773438 394.421875 56.828125 Z M 394.421875 56.828125 " fill-opacity="1" fill-rule="nonzero"/></g><g clip-path="url(#9fd0ec91d8)"><path stroke-linecap="round" transform="matrix(0.395115, 0, 0, 0.395072, 171.671949, 56.51125)" fill="none" stroke-linejoin="round" d="M 563.759903 0.80207 L 53.000616 35.408129 C 51.903229 35.526779 50.815729 35.744302 49.757888 36.060701 C 48.69016 36.377099 47.671865 36.782484 46.683228 37.286744 C 45.694592 37.791004 44.765273 38.38425 43.885387 39.056597 C 43.0055 39.728943 42.194818 40.480389 41.453341 41.301047 C 40.72175 42.131592 40.059363 43.011575 39.476068 43.96077 C 38.902659 44.900077 38.418227 45.888822 38.022772 46.927003 C 37.627318 47.965185 37.330727 49.023142 37.123113 50.110761 C 36.925386 51.208267 36.826522 52.305774 36.826522 53.413168 L 36.826522 416.430734 C 36.826522 417.587566 36.935272 418.734509 37.162658 419.881453 C 37.380158 421.018509 37.706409 422.125903 38.141409 423.203635 C 38.576409 424.271479 39.110272 425.299773 39.743 426.268743 C 40.375727 427.2476 41.087545 428.147357 41.898227 428.977903 C 42.699023 429.818336 43.578909 430.569782 44.528001 431.23224 C 45.477092 431.894699 46.485501 432.468171 47.543342 432.942769 C 48.601183 433.407479 49.69857 433.773314 50.825615 434.040275 C 51.952661 434.297349 53.099479 434.44566 54.256184 434.48521 L 564.995699 471.642231 C 566.211722 471.681781 567.417859 471.602681 568.614109 471.404932 C 569.810359 471.207183 570.97695 470.890785 572.103996 470.455737 C 573.240928 470.02069 574.318542 469.47688 575.336837 468.824309 C 576.365019 468.171737 577.31411 467.430179 578.18411 466.589746 C 579.054111 465.739426 579.835133 464.819893 580.517293 463.821261 C 581.209338 462.822629 581.792634 461.764673 582.267179 460.647391 C 582.741725 459.53011 583.097634 458.383166 583.334907 457.196673 C 583.582066 456.000292 583.700702 454.803911 583.700702 453.587755 L 583.700702 18.767558 C 583.700702 17.501965 583.572179 16.256147 583.305248 15.010329 C 583.048202 13.774398 582.652747 12.578017 582.138656 11.421186 C 581.624566 10.264355 581.001724 9.176736 580.260247 8.148442 C 579.508883 7.130035 578.668542 6.190727 577.729338 5.350295 C 576.790133 4.499974 575.771837 3.758416 574.674451 3.125619 C 573.577064 2.492823 572.430246 1.978676 571.224109 1.593065 C 570.027859 1.197567 568.792063 0.930606 567.536495 0.80207 C 566.280927 0.673533 565.015472 0.663645 563.759903 0.80207 Z M 563.759903 0.80207 " stroke="#0c3d3c" stroke-width="1.39" stroke-opacity="1" stroke-miterlimit="4"/></g><path stroke-linecap="round" transform="matrix(0.395115, 0, 0, 0.395072, 171.671949, 56.51125)" fill-opacity="1" fill="#ffffff" fill-rule="nonzero" stroke-linejoin="round" d="M 36.826522 85.290293 L 36.826522 416.430734 C 36.826522 417.587566 36.935272 418.734509 37.162658 419.881453 C 37.380158 421.018509 37.706409 422.125903 38.141409 423.203635 C 38.576409 424.271479 39.110272 425.299773 39.743 426.268743 C 40.375727 427.2476 41.087545 428.147357 41.898227 428.977903 C 42.699023 429.818336 43.578909 430.569782 44.528001 431.23224 C 45.477092 431.894699 46.485501 432.468171 47.543342 432.942769 C 48.601183 433.407479 49.69857 433.773314 50.825615 434.040275 C 51.952661 434.297349 53.099479 434.44566 54.256184 434.48521 L 564.995699 471.642231 C 566.211722 471.681781 567.417859 471.602681 568.614109 471.404932 C 569.810359 471.207183 570.97695 470.890785 572.103996 470.455737 C 573.240928 470.02069 574.318542 469.47688 575.336837 468.824309 C 576.365019 468.171737 577.31411 467.430179 578.18411 466.589746 C 579.054111 465.739426 579.835133 464.819893 580.517293 463.821261 C 581.209338 462.822629 581.792634 461.764673 582.267179 460.647391 C 582.741725 459.53011 583.097634 458.383166 583.334907 457.196673 C 583.582066 456.000292 583.700702 454.803911 583.700702 453.587755 L 583.700702 62.292094 Z M 36.826522 85.290293 " stroke="#0c3d3c" stroke-width="1.39" stroke-opacity="1" stroke-miterlimit="4"/><g clip-path="url(#954ac9d6a5)"><path stroke-linecap="round" transform="matrix(0.395115, 0, 0, 0.395072, 171.671949, 56.51125)" fill-opacity="1" fill="#ffda00" fill-rule="nonzero" stroke-linejoin="round" d="M 583.720475 18.767558 C 583.720475 17.501965 583.591952 16.24626 583.334907 15.000442 C 583.067975 13.764511 582.682407 12.558242 582.168316 11.401411 C 581.654225 10.234693 581.021497 9.147074 580.28002 8.118779 C 579.528656 7.090485 578.688315 6.151178 577.739224 5.300857 C 576.800019 4.450537 575.771837 3.708979 574.674451 3.076182 C 573.577064 2.443386 572.420359 1.929238 571.214223 1.543628 C 570.008086 1.14813 568.772291 0.891057 567.506836 0.76252 C 566.241381 0.633983 564.985813 0.633983 563.720358 0.772407 L 53.000616 35.408129 C 51.903229 35.526779 50.815729 35.744302 49.757888 36.060701 C 48.69016 36.377099 47.671865 36.782484 46.683228 37.286744 C 45.694592 37.791004 44.765273 38.38425 43.885387 39.056597 C 43.0055 39.728943 42.194818 40.480389 41.453341 41.301047 C 40.72175 42.131592 40.059363 43.011575 39.476068 43.96077 C 38.902659 44.900077 38.418227 45.888822 38.022772 46.927003 C 37.627318 47.965185 37.330727 49.023142 37.123113 50.110761 C 36.925386 51.208267 36.826522 52.305774 36.826522 53.413168 L 36.826522 85.290293 L 583.720475 62.292094 Z M 583.720475 18.767558 " stroke="#0c3d3c" stroke-width="1.06" stroke-opacity="1" stroke-miterlimit="4"/></g><path stroke-linecap="round" transform="matrix(0.395115, 0, 0, 0.395072, 171.671949, 56.51125)" fill-opacity="1" fill="#ffffff" fill-rule="nonzero" stroke-linejoin="round" d="M 66.2088 60.403592 C 66.2088 61.530761 66.011072 62.61838 65.615618 63.656562 C 65.230049 64.694743 64.666527 65.624163 63.944822 66.415159 C 63.213231 67.216042 62.37289 67.829064 61.423799 68.264111 C 60.474708 68.689271 59.486071 68.906795 58.457889 68.906795 C 57.429707 68.906795 56.441071 68.689271 55.49198 68.264111 C 54.542889 67.829064 53.702547 67.216042 52.980843 66.415159 C 52.249252 65.624163 51.695615 64.694743 51.300161 63.656562 C 50.904706 62.61838 50.706979 61.530761 50.706979 60.403592 C 50.706979 59.276423 50.904706 58.188804 51.300161 57.140735 C 51.695615 56.102553 52.249252 55.183021 52.980843 54.382137 C 53.702547 53.581254 54.542889 52.968233 55.49198 52.533185 C 56.441071 52.108025 57.429707 51.890501 58.457889 51.890501 C 59.486071 51.890501 60.474708 52.108025 61.423799 52.533185 C 62.37289 52.968233 63.213231 53.581254 63.944822 54.382137 C 64.666527 55.183021 65.230049 56.102553 65.615618 57.140735 C 66.011072 58.188804 66.2088 59.276423 66.2088 60.403592 Z M 66.2088 60.403592 " stroke="#0c3d3c" stroke-width="1.39" stroke-opacity="1" stroke-miterlimit="4"/><path stroke-linecap="round" transform="matrix(0.395115, 0, 0, 0.395072, 171.671949, 56.51125)" fill-opacity="1" fill="#ffffff" fill-rule="nonzero" stroke-linejoin="round" d="M 87.434826 59.355523 C 87.434826 60.492579 87.237098 61.57031 86.841644 62.61838 C 86.446189 63.656562 85.882666 64.576094 85.160962 65.376977 C 84.429371 66.17786 83.598916 66.790882 82.649825 67.225929 C 81.700734 67.65109 80.712097 67.868613 79.683915 67.868613 C 78.655733 67.868613 77.667097 67.65109 76.718006 67.225929 C 75.768915 66.790882 74.928574 66.17786 74.196983 65.376977 C 73.475278 64.576094 72.911755 63.656562 72.516301 62.61838 C 72.130732 61.57031 71.933005 60.492579 71.933005 59.355523 C 71.933005 58.228354 72.130732 57.150622 72.516301 56.102553 C 72.911755 55.064371 73.475278 54.144839 74.196983 53.343956 C 74.928574 52.543073 75.768915 51.930051 76.718006 51.495003 C 77.667097 51.069843 78.655733 50.852319 79.683915 50.852319 C 80.712097 50.852319 81.700734 51.069843 82.649825 51.495003 C 83.598916 51.930051 84.429371 52.543073 85.160962 53.343956 C 85.882666 54.144839 86.446189 55.064371 86.841644 56.102553 C 87.237098 57.150622 87.434826 58.228354 87.434826 59.355523 Z M 87.434826 59.355523 " stroke="#0c3d3c" stroke-width="1.39" stroke-opacity="1" stroke-miterlimit="4"/><path stroke-linecap="round" transform="matrix(0.395115, 0, 0, 0.395072, 171.671949, 56.51125)" fill-opacity="1" fill="#ffffff" fill-rule="nonzero" stroke-linejoin="round" d="M 108.888238 58.218466 C 108.888238 59.345635 108.690511 60.433254 108.304943 61.481323 C 107.909488 62.519505 107.345965 63.439038 106.624261 64.239921 C 105.89267 65.030916 105.052329 65.653826 104.103238 66.078986 C 103.154146 66.514033 102.16551 66.731557 101.137328 66.731557 C 100.109146 66.731557 99.120509 66.514033 98.171418 66.078986 C 97.222327 65.653826 96.381986 65.030916 95.660282 64.239921 C 94.928691 63.439038 94.375054 62.519505 93.9796 61.481323 C 93.584145 60.433254 93.386418 59.345635 93.386418 58.218466 C 93.386418 57.091298 93.584145 56.003679 93.9796 54.965497 C 94.375054 53.917428 94.928691 52.997895 95.660282 52.206899 C 96.381986 51.406016 97.222327 50.792995 98.171418 50.357947 C 99.120509 49.9229 100.109146 49.705376 101.137328 49.705376 C 102.16551 49.705376 103.154146 49.9229 104.103238 50.357947 C 105.052329 50.792995 105.89267 51.406016 106.624261 52.206899 C 107.345965 52.997895 107.909488 53.917428 108.304943 54.965497 C 108.690511 56.003679 108.888238 57.091298 108.888238 58.218466 Z M 108.888238 58.218466 " stroke="#0c3d3c" stroke-width="1.39" stroke-opacity="1" stroke-miterlimit="4"/><path stroke-linecap="round" transform="matrix(0.395115, 0, 0, 0.395072, 171.671949, 56.51125)" fill-opacity="1" fill="#ffffff" fill-rule="nonzero" stroke-linejoin="round" d="M 116.273353 44.227731 L 494.664097 21.091108 L 494.664097 53.294518 L 116.273353 70.577773 Z M 116.273353 44.227731 " stroke="#0c3d3c" stroke-width="1.39" stroke-opacity="1" stroke-miterlimit="4"/><path stroke-linecap="round" transform="matrix(0.395115, 0, 0, 0.395072, 171.671949, 56.51125)" fill-opacity="1" fill="#ffffff" fill-rule="nonzero" stroke-linejoin="round" d="M 505.924667 20.329775 L 562.148426 17.225117 L 562.148426 50.328285 L 505.924667 52.671609 Z M 505.924667 20.329775 " stroke="#0c3d3c" stroke-width="1.39" stroke-opacity="1" stroke-miterlimit="4"/><path stroke-linecap="round" transform="matrix(0.395115, 0, 0, 0.395072, 171.671949, 56.51125)" fill-opacity="1" fill="#0c3d3c" fill-rule="nonzero" stroke-linejoin="round" d="M 116.273353 44.227731 L 122.541309 48.331021 L 122.541309 65.999886 L 116.273353 70.538224 Z M 116.273353 44.227731 " stroke="#0c3d3c" stroke-width="0.42" stroke-opacity="1" stroke-miterlimit="4"/><path stroke-linecap="round" transform="matrix(0.395115, 0, 0, 0.395072, 171.671949, 56.51125)" fill-opacity="1" fill="#0c3d3c" fill-rule="nonzero" stroke-linejoin="round" d="M 494.11046 21.219645 L 487.832618 26.766502 L 487.832618 48.864943 L 494.11046 53.40328 Z M 494.11046 21.219645 " stroke="#0c3d3c" stroke-width="0.42" stroke-opacity="1" stroke-miterlimit="4"/><path stroke-linecap="round" transform="matrix(0.395115, 0, 0, 0.395072, 171.671949, 56.51125)" fill-opacity="1" fill="#ffffff" fill-rule="nonzero" stroke-linejoin="round" d="M 119.891763 65.535176 L 491.045687 47.460926 " stroke="#0c3d3c" stroke-width="1.39" stroke-opacity="1" stroke-miterlimit="4"/><path stroke-linecap="round" transform="matrix(0.395115, 0, 0, 0.395072, 171.671949, 56.51125)" fill-opacity="1" fill="#ffffff" fill-rule="nonzero" stroke-linejoin="round" d="M 116.055853 49.646051 L 490.08671 26.766502 " stroke="#0c3d3c" stroke-width="1.39" stroke-opacity="1" stroke-miterlimit="4"/><path stroke-linecap="round" transform="matrix(0.395115, 0, 0, 0.395072, 171.671949, 56.51125)" fill-opacity="1" fill="#0c3d3c" fill-rule="nonzero" stroke-linejoin="round" d="M 505.924667 20.329775 L 511.391827 25.64922 L 511.391827 47.658674 L 505.924667 52.671609 Z M 505.924667 20.329775 " stroke="#0c3d3c" stroke-width="1.39" stroke-opacity="1" stroke-miterlimit="4"/><path stroke-linecap="round" transform="matrix(0.395115, 0, 0, 0.395072, 171.671949, 56.51125)" fill-opacity="1" fill="#0c3d3c" fill-rule="nonzero" stroke-linejoin="round" d="M 561.535471 18.06555 L 556.058425 23.394883 L 556.058425 45.404337 L 561.535471 50.407384 Z M 561.535471 18.06555 " stroke="#0c3d3c" stroke-width="1.39" stroke-opacity="1" stroke-miterlimit="4"/><path stroke-linecap="round" transform="matrix(0.395115, 0, 0, 0.395072, 171.671949, 56.51125)" fill-opacity="1" fill="#0c3d3c" fill-rule="nonzero" stroke-linejoin="round" d="M 511.391827 47.658674 L 557.43263 46.017358 " stroke="#0c3d3c" stroke-width="1.39" stroke-opacity="1" stroke-miterlimit="4"/><path stroke-linecap="round" transform="matrix(0.395115, 0, 0, 0.395072, 171.671949, 56.51125)" fill-opacity="1" fill="#0c3d3c" fill-rule="nonzero" stroke-linejoin="round" d="M 508.920235 25.668995 L 558.035698 22.999385 " stroke="#0c3d3c" stroke-width="1.39" stroke-opacity="1" stroke-miterlimit="4"/><path stroke-linecap="round" transform="matrix(0.395115, 0, 0, 0.395072, 171.671949, 56.51125)" fill-opacity="1" fill="#ffda00" fill-rule="nonzero" stroke-linejoin="round" d="M 390.293739 425.457972 L 390.293739 95.049201 L 556.809789 88.741011 L 556.809789 434.643409 Z M 390.293739 425.457972 " stroke="#0c3d3c" stroke-width="1.06" stroke-opacity="1" stroke-miterlimit="4"/><path stroke-linecap="round" transform="matrix(0.395115, 0, 0, 0.395072, 171.671949, 56.51125)" fill="none" stroke-linejoin="round" d="M 390.728739 116.415971 L 556.592289 111.66011 " stroke="#0c3d3c" stroke-width="1.17" stroke-opacity="1" stroke-miterlimit="4"/><path stroke-linecap="round" transform="matrix(0.395115, 0, 0, 0.395072, 171.671949, 56.51125)" fill="none" stroke-linejoin="round" d="M 390.728739 138.415538 L 556.592289 134.638534 " stroke="#0c3d3c" stroke-width="1.17" stroke-opacity="1" stroke-miterlimit="4"/><path stroke-linecap="round" transform="matrix(0.395115, 0, 0, 0.395072, 171.671949, 56.51125)" fill="none" stroke-linejoin="round" d="M 390.728739 160.434879 L 556.592289 157.616957 " stroke="#0c3d3c" stroke-width="1.17" stroke-opacity="1" stroke-miterlimit="4"/><path stroke-linecap="round" transform="matrix(0.395115, 0, 0, 0.395072, 171.671949, 56.51125)" fill="none" stroke-linejoin="round" d="M 390.728739 182.434446 L 556.592289 180.595381 " stroke="#0c3d3c" stroke-width="1.17" stroke-opacity="1" stroke-miterlimit="4"/><path stroke-linecap="round" transform="matrix(0.395115, 0, 0, 0.395072, 171.671949, 56.51125)" fill="none" stroke-linejoin="round" d="M 390.728739 204.4439 L 556.592289 203.583692 " stroke="#0c3d3c" stroke-width="1.17" stroke-opacity="1" stroke-miterlimit="4"/><path stroke-linecap="round" transform="matrix(0.395115, 0, 0, 0.395072, 171.671949, 56.51125)" fill="none" stroke-linejoin="round" d="M 390.728739 226.453354 L 556.592289 226.562116 " stroke="#0c3d3c" stroke-width="1.17" stroke-opacity="1" stroke-miterlimit="4"/><path stroke-linecap="round" transform="matrix(0.395115, 0, 0, 0.395072, 171.671949, 56.51125)" fill="none" stroke-linejoin="round" d="M 390.728739 248.45292 L 556.592289 249.540539 " stroke="#0c3d3c" stroke-width="1.17" stroke-opacity="1" stroke-miterlimit="4"/><path stroke-linecap="round" transform="matrix(0.395115, 0, 0, 0.395072, 171.671949, 56.51125)" fill="none" stroke-linejoin="round" d="M 390.728739 270.462374 L 556.592289 272.509076 " stroke="#0c3d3c" stroke-width="1.17" stroke-opacity="1" stroke-miterlimit="4"/><path stroke-linecap="round" transform="matrix(0.395115, 0, 0, 0.395072, 171.671949, 56.51125)" fill="none" stroke-linejoin="round" d="M 390.728739 292.461941 L 556.592289 295.487499 " stroke="#0c3d3c" stroke-width="1.17" stroke-opacity="1" stroke-miterlimit="4"/><path stroke-linecap="round" transform="matrix(0.395115, 0, 0, 0.395072, 171.671949, 56.51125)" fill="none" stroke-linejoin="round" d="M 390.728739 314.471395 L 556.592289 318.465923 " stroke="#0c3d3c" stroke-width="1.17" stroke-opacity="1" stroke-miterlimit="4"/><path stroke-linecap="round" transform="matrix(0.395115, 0, 0, 0.395072, 171.671949, 56.51125)" fill="none" stroke-linejoin="round" d="M 390.728739 336.470962 L 556.592289 341.454234 " stroke="#0c3d3c" stroke-width="1.17" stroke-opacity="1" stroke-miterlimit="4"/><path stroke-linecap="round" transform="matrix(0.395115, 0, 0, 0.395072, 171.671949, 56.51125)" fill="none" stroke-linejoin="round" d="M 390.728739 358.480415 L 556.592289 364.432658 " stroke="#0c3d3c" stroke-width="1.17" stroke-opacity="1" stroke-miterlimit="4"/><path stroke-linecap="round" transform="matrix(0.395115, 0, 0, 0.395072, 171.671949, 56.51125)" fill="none" stroke-linejoin="round" d="M 390.728739 380.479982 L 556.592289 387.411081 " stroke="#0c3d3c" stroke-width="1.17" stroke-opacity="1" stroke-miterlimit="4"/><path stroke-linecap="round" transform="matrix(0.395115, 0, 0, 0.395072, 171.671949, 56.51125)" fill="none" stroke-linejoin="round" d="M 390.728739 402.489436 L 556.592289 410.389505 " stroke="#0c3d3c" stroke-width="1.17" stroke-opacity="1" stroke-miterlimit="4"/><path stroke-linecap="round" transform="matrix(0.395115, 0, 0, 0.395072, 171.671949, 56.51125)" fill="none" stroke-linejoin="round" d="M 468.821138 92.231279 L 468.821138 429.828223 " stroke="#0c3d3c" stroke-width="1.17" stroke-opacity="1" stroke-miterlimit="4"/><path stroke-linecap="round" transform="matrix(0.395115, 0, 0, 0.395072, 171.671949, 56.51125)" fill-opacity="1" fill="#76ce7a" fill-rule="nonzero" stroke-linejoin="round" d="M 216.016892 417.22173 L 216.016892 100.774032 L 375.503736 94.722916 L 375.503736 426.011669 Z M 216.016892 417.22173 " stroke="#0c3d3c" stroke-width="1.04" stroke-opacity="1" stroke-miterlimit="4"/><path stroke-linecap="round" transform="matrix(0.395115, 0, 0, 0.395072, 171.671949, 56.51125)" fill="none" stroke-linejoin="round" d="M 216.442006 121.231157 L 375.286236 116.682932 " stroke="#0c3d3c" stroke-width="1.12" stroke-opacity="1" stroke-miterlimit="4"/><path stroke-linecap="round" transform="matrix(0.395115, 0, 0, 0.395072, 171.671949, 56.51125)" fill="none" stroke-linejoin="round" d="M 216.442006 142.311192 L 375.286236 138.692386 " stroke="#0c3d3c" stroke-width="1.12" stroke-opacity="1" stroke-miterlimit="4"/><path stroke-linecap="round" transform="matrix(0.395115, 0, 0, 0.395072, 171.671949, 56.51125)" fill="none" stroke-linejoin="round" d="M 216.442006 163.391226 L 375.286236 160.691953 " stroke="#0c3d3c" stroke-width="1.12" stroke-opacity="1" stroke-miterlimit="4"/><path stroke-linecap="round" transform="matrix(0.395115, 0, 0, 0.395072, 171.671949, 56.51125)" fill="none" stroke-linejoin="round" d="M 216.442006 184.461372 L 375.286236 182.701407 " stroke="#0c3d3c" stroke-width="1.12" stroke-opacity="1" stroke-miterlimit="4"/><path stroke-linecap="round" transform="matrix(0.395115, 0, 0, 0.395072, 171.671949, 56.51125)" fill="none" stroke-linejoin="round" d="M 216.442006 205.541406 L 375.286236 204.710861 " stroke="#0c3d3c" stroke-width="1.12" stroke-opacity="1" stroke-miterlimit="4"/><path stroke-linecap="round" transform="matrix(0.395115, 0, 0, 0.395072, 171.671949, 56.51125)" fill="none" stroke-linejoin="round" d="M 216.442006 226.611553 L 375.286236 226.720315 " stroke="#0c3d3c" stroke-width="1.12" stroke-opacity="1" stroke-miterlimit="4"/><path stroke-linecap="round" transform="matrix(0.395115, 0, 0, 0.395072, 171.671949, 56.51125)" fill="none" stroke-linejoin="round" d="M 216.442006 247.691587 L 375.286236 248.729769 " stroke="#0c3d3c" stroke-width="1.12" stroke-opacity="1" stroke-miterlimit="4"/><path stroke-linecap="round" transform="matrix(0.395115, 0, 0, 0.395072, 171.671949, 56.51125)" fill="none" stroke-linejoin="round" d="M 216.442006 268.761734 L 375.286236 270.729335 " stroke="#0c3d3c" stroke-width="1.12" stroke-opacity="1" stroke-miterlimit="4"/><path stroke-linecap="round" transform="matrix(0.395115, 0, 0, 0.395072, 171.671949, 56.51125)" fill="none" stroke-linejoin="round" d="M 216.442006 289.841768 L 375.286236 292.738789 " stroke="#0c3d3c" stroke-width="1.12" stroke-opacity="1" stroke-miterlimit="4"/><path stroke-linecap="round" transform="matrix(0.395115, 0, 0, 0.395072, 171.671949, 56.51125)" fill="none" stroke-linejoin="round" d="M 216.442006 310.911915 L 375.286236 314.748243 " stroke="#0c3d3c" stroke-width="1.12" stroke-opacity="1" stroke-miterlimit="4"/><path stroke-linecap="round" transform="matrix(0.395115, 0, 0, 0.395072, 171.671949, 56.51125)" fill="none" stroke-linejoin="round" d="M 216.442006 331.991949 L 375.286236 336.757697 " stroke="#0c3d3c" stroke-width="1.12" stroke-opacity="1" stroke-miterlimit="4"/><path stroke-linecap="round" transform="matrix(0.395115, 0, 0, 0.395072, 171.671949, 56.51125)" fill="none" stroke-linejoin="round" d="M 216.442006 353.071983 L 375.286236 358.767151 " stroke="#0c3d3c" stroke-width="1.12" stroke-opacity="1" stroke-miterlimit="4"/><path stroke-linecap="round" transform="matrix(0.395115, 0, 0, 0.395072, 171.671949, 56.51125)" fill="none" stroke-linejoin="round" d="M 216.442006 374.142129 L 375.286236 380.776605 " stroke="#0c3d3c" stroke-width="1.12" stroke-opacity="1" stroke-miterlimit="4"/><path stroke-linecap="round" transform="matrix(0.395115, 0, 0, 0.395072, 171.671949, 56.51125)" fill="none" stroke-linejoin="round" d="M 216.442006 395.222163 L 375.286236 402.776172 " stroke="#0c3d3c" stroke-width="1.12" stroke-opacity="1" stroke-miterlimit="4"/><path stroke-linecap="round" transform="matrix(0.395115, 0, 0, 0.395072, 171.671949, 56.51125)" fill="none" stroke-linejoin="round" d="M 291.222473 98.07476 L 291.222473 421.40412 " stroke="#0c3d3c" stroke-width="1.12" stroke-opacity="1" stroke-miterlimit="4"/><path stroke-linecap="round" transform="matrix(0.395115, 0, 0, 0.395072, 171.671949, 56.51125)" fill-opacity="1" fill="#76ce7a" fill-rule="nonzero" stroke-linejoin="round" d="M 51.98232 406.998111 L 51.98232 107.487608 L 202.917458 101.772664 L 202.917458 415.32334 Z M 51.98232 406.998111 " stroke="#0c3d3c" stroke-width="0.98" stroke-opacity="1" stroke-miterlimit="4"/><path stroke-linecap="round" transform="matrix(0.395115, 0, 0, 0.395072, 171.671949, 56.51125)" fill="none" stroke-linejoin="round" d="M 52.367888 126.857114 L 202.719731 122.546188 " stroke="#0c3d3c" stroke-width="1.06" stroke-opacity="1" stroke-miterlimit="4"/><path stroke-linecap="round" transform="matrix(0.395115, 0, 0, 0.395072, 171.671949, 56.51125)" fill="none" stroke-linejoin="round" d="M 52.367888 146.809979 L 202.719731 143.379036 " stroke="#0c3d3c" stroke-width="1.06" stroke-opacity="1" stroke-miterlimit="4"/><path stroke-linecap="round" transform="matrix(0.395115, 0, 0, 0.395072, 171.671949, 56.51125)" fill="none" stroke-linejoin="round" d="M 52.367888 166.762845 L 202.719731 164.211884 " stroke="#0c3d3c" stroke-width="1.06" stroke-opacity="1" stroke-miterlimit="4"/><path stroke-linecap="round" transform="matrix(0.395115, 0, 0, 0.395072, 171.671949, 56.51125)" fill="none" stroke-linejoin="round" d="M 52.367888 186.695935 L 202.719731 185.044732 " stroke="#0c3d3c" stroke-width="1.06" stroke-opacity="1" stroke-miterlimit="4"/><path stroke-linecap="round" transform="matrix(0.395115, 0, 0, 0.395072, 171.671949, 56.51125)" fill="none" stroke-linejoin="round" d="M 52.367888 206.6488 L 202.719731 205.867692 " stroke="#0c3d3c" stroke-width="1.06" stroke-opacity="1" stroke-miterlimit="4"/><path stroke-linecap="round" transform="matrix(0.395115, 0, 0, 0.395072, 171.671949, 56.51125)" fill="none" stroke-linejoin="round" d="M 52.367888 226.601666 L 202.719731 226.70054 " stroke="#0c3d3c" stroke-width="1.06" stroke-opacity="1" stroke-miterlimit="4"/><path stroke-linecap="round" transform="matrix(0.395115, 0, 0, 0.395072, 171.671949, 56.51125)" fill="none" stroke-linejoin="round" d="M 52.367888 246.554531 L 202.719731 247.533388 " stroke="#0c3d3c" stroke-width="1.06" stroke-opacity="1" stroke-miterlimit="4"/><path stroke-linecap="round" transform="matrix(0.395115, 0, 0, 0.395072, 171.671949, 56.51125)" fill="none" stroke-linejoin="round" d="M 52.367888 266.487621 L 202.719731 268.356349 " stroke="#0c3d3c" stroke-width="1.06" stroke-opacity="1" stroke-miterlimit="4"/><path stroke-linecap="round" transform="matrix(0.395115, 0, 0, 0.395072, 171.671949, 56.51125)" fill="none" stroke-linejoin="round" d="M 52.367888 286.440487 L 202.719731 289.189196 " stroke="#0c3d3c" stroke-width="1.06" stroke-opacity="1" stroke-miterlimit="4"/><path stroke-linecap="round" transform="matrix(0.395115, 0, 0, 0.395072, 171.671949, 56.51125)" fill="none" stroke-linejoin="round" d="M 52.367888 306.393352 L 202.719731 310.022044 " stroke="#0c3d3c" stroke-width="1.06" stroke-opacity="1" stroke-miterlimit="4"/><path stroke-linecap="round" transform="matrix(0.395115, 0, 0, 0.395072, 171.671949, 56.51125)" fill="none" stroke-linejoin="round" d="M 52.367888 326.33633 L 202.719731 330.854892 " stroke="#0c3d3c" stroke-width="1.06" stroke-opacity="1" stroke-miterlimit="4"/><path stroke-linecap="round" transform="matrix(0.395115, 0, 0, 0.395072, 171.671949, 56.51125)" fill="none" stroke-linejoin="round" d="M 52.367888 346.279308 L 202.719731 351.677853 " stroke="#0c3d3c" stroke-width="1.06" stroke-opacity="1" stroke-miterlimit="4"/><path stroke-linecap="round" transform="matrix(0.395115, 0, 0, 0.395072, 171.671949, 56.51125)" fill="none" stroke-linejoin="round" d="M 52.367888 366.232173 L 202.719731 372.510701 " stroke="#0c3d3c" stroke-width="1.06" stroke-opacity="1" stroke-miterlimit="4"/><path stroke-linecap="round" transform="matrix(0.395115, 0, 0, 0.395072, 171.671949, 56.51125)" fill="none" stroke-linejoin="round" d="M 52.367888 386.175151 L 202.719731 393.343549 " stroke="#0c3d3c" stroke-width="1.06" stroke-opacity="1" stroke-miterlimit="4"/><path stroke-linecap="round" transform="matrix(0.395115, 0, 0, 0.395072, 171.671949, 56.51125)" fill="none" stroke-linejoin="round" d="M 123.154263 104.936647 L 123.154263 410.962977 " stroke="#0c3d3c" stroke-width="1.06" stroke-opacity="1" stroke-miterlimit="4"/><path fill="#76ce7a" d="M 384.730469 377.832031 L 219.042969 357.367188 L 221.441406 131.769531 L 342.144531 126.796875 L 387.128906 124.945312 L 386.699219 170.25 Z M 384.730469 377.832031 " fill-opacity="1" fill-rule="nonzero"/><g clip-path="url(#a4ff0badea)"><path stroke-linecap="butt" transform="matrix(0.395115, 0, 0, 0.395072, 171.671949, 56.51125)" fill="none" stroke-linejoin="miter" d="M 539.231831 813.32269 L 119.891763 761.522362 L 125.961991 190.492714 L 431.450677 177.905996 L 545.30206 173.219347 L 544.214559 287.893941 Z M 539.231831 813.32269 " stroke="#0c3d3c" stroke-width="1.1" stroke-opacity="1" stroke-miterlimit="10"/></g><path fill="#76ce7a" d="M 382.78125 377.667969 L 217.09375 357.203125 L 219.492188 131.605469 L 340.195312 126.636719 L 385.179688 124.785156 L 384.75 170.085938 Z M 382.78125 377.667969 " fill-opacity="1" fill-rule="nonzero"/><g clip-path="url(#846fd2e77e)"><path stroke-linecap="butt" transform="matrix(0.395115, 0, 0, 0.395072, 171.671949, 56.51125)" fill="none" stroke-linejoin="miter" d="M 534.298535 812.907417 L 114.958467 761.107089 L 121.028695 190.077441 L 426.517381 177.500611 L 540.368763 172.813961 L 539.281263 287.478668 Z M 534.298535 812.907417 " stroke="#0c3d3c" stroke-width="1.1" stroke-opacity="1" stroke-miterlimit="10"/></g><path fill="#76ce7a" d="M 380.832031 377.507812 L 215.144531 357.042969 L 217.542969 131.445312 L 338.25 126.472656 L 383.230469 124.621094 L 382.800781 169.925781 Z M 380.832031 377.507812 " fill-opacity="1" fill-rule="nonzero"/><g clip-path="url(#34ddca1477)"><path stroke-linecap="butt" transform="matrix(0.395115, 0, 0, 0.395072, 171.671949, 56.51125)" fill="none" stroke-linejoin="miter" d="M 529.365239 812.502032 L 110.02517 760.701704 L 116.095399 189.672056 L 421.593971 177.085338 L 535.435467 172.398689 L 534.347967 287.073283 Z M 529.365239 812.502032 " stroke="#0c3d3c" stroke-width="1.1" stroke-opacity="1" stroke-miterlimit="10"/></g><path fill="#76ce7a" d="M 378.882812 377.34375 L 213.195312 356.878906 L 215.59375 131.28125 L 336.300781 126.3125 L 381.28125 124.460938 L 380.855469 169.761719 Z M 378.882812 377.34375 " fill-opacity="1" fill-rule="nonzero"/><g clip-path="url(#64e9b5a172)"><path stroke-linecap="butt" transform="matrix(0.395115, 0, 0, 0.395072, 171.671949, 56.51125)" fill="none" stroke-linejoin="miter" d="M 524.431943 812.086759 L 105.091874 760.286431 L 111.162102 189.256783 L 416.660675 176.679953 L 530.502171 171.993303 L 529.424557 286.65801 Z M 524.431943 812.086759 " stroke="#0c3d3c" stroke-width="1.1" stroke-opacity="1" stroke-miterlimit="10"/></g><path fill="#76ce7a" d="M 376.933594 377.183594 L 211.246094 356.71875 L 213.644531 131.121094 L 334.347656 126.152344 L 379.332031 124.296875 L 378.902344 169.601562 Z M 376.933594 377.183594 " fill-opacity="1" fill-rule="nonzero"/><g clip-path="url(#e4b8dae0aa)"><path stroke-linecap="butt" transform="matrix(0.395115, 0, 0, 0.395072, 171.671949, 56.51125)" fill="none" stroke-linejoin="miter" d="M 519.498646 811.681374 L 100.158578 759.881046 L 106.228806 188.851398 L 411.717492 176.274567 L 525.568875 171.578031 L 524.481374 286.252625 Z M 519.498646 811.681374 " stroke="#0c3d3c" stroke-width="1.1" stroke-opacity="1" stroke-miterlimit="10"/></g><path fill="#76ce7a" d="M 374.984375 377.019531 L 209.296875 356.554688 L 211.695312 130.957031 L 332.402344 125.988281 L 377.382812 124.136719 L 376.953125 169.4375 Z M 374.984375 377.019531 " fill-opacity="1" fill-rule="nonzero"/><g clip-path="url(#864b6d64a2)"><path stroke-linecap="butt" transform="matrix(0.395115, 0, 0, 0.395072, 171.671949, 56.51125)" fill="none" stroke-linejoin="miter" d="M 514.56535 811.266101 L 95.225282 759.465773 L 101.29551 188.436125 L 406.794082 175.859295 L 520.635578 171.172645 L 519.548078 285.837352 Z M 514.56535 811.266101 " stroke="#0c3d3c" stroke-width="1.1" stroke-opacity="1" stroke-miterlimit="10"/></g><path fill="#76ce7a" d="M 373.039062 376.859375 L 207.351562 356.390625 L 209.75 130.792969 L 330.453125 125.824219 L 375.4375 123.972656 L 375.007812 169.277344 Z M 373.039062 376.859375 " fill-opacity="1" fill-rule="nonzero"/><g clip-path="url(#06448e3071)"><path stroke-linecap="butt" transform="matrix(0.395115, 0, 0, 0.395072, 171.671949, 56.51125)" fill="none" stroke-linejoin="miter" d="M 509.64194 810.860716 L 90.301872 759.050501 L 96.3721 188.020853 L 401.860786 175.444022 L 515.712168 170.757373 L 514.624668 285.431967 Z M 509.64194 810.860716 " stroke="#0c3d3c" stroke-width="1.1" stroke-opacity="1" stroke-miterlimit="10"/></g><path fill="#76ce7a" d="M 373.039062 376.859375 L 207.351562 356.390625 L 209.75 130.792969 L 330.453125 125.824219 L 375.4375 123.972656 L 375.007812 169.277344 Z M 373.039062 376.859375 " fill-opacity="1" fill-rule="nonzero"/><g clip-path="url(#69ba6ce9e7)"><path stroke-linecap="butt" transform="matrix(0.395115, 0, 0, 0.395072, 171.671949, 56.51125)" fill="none" stroke-linejoin="miter" d="M 509.64194 810.860716 L 90.301872 759.050501 L 96.3721 188.020853 L 401.860786 175.444022 L 515.712168 170.757373 L 514.624668 285.431967 Z M 509.64194 810.860716 " stroke="#0c3d3c" stroke-width="1.1" stroke-opacity="1" stroke-miterlimit="10"/></g><path stroke-linecap="butt" transform="matrix(0.395115, 0, 0, 0.395072, 171.671949, 56.51125)" fill-opacity="1" fill="#0c3d3c" fill-rule="nonzero" stroke-linejoin="miter" d="M 118.151763 345.013715 L 484.471254 351.064831 L 484.471254 362.247532 L 118.151763 356.957749 Z M 118.151763 345.013715 " stroke="#0c3d3c" stroke-width="0.97" stroke-opacity="1" stroke-miterlimit="10"/><path stroke-linecap="butt" transform="matrix(0.395115, 0, 0, 0.395072, 171.671949, 56.51125)" fill-opacity="1" fill="#0c3d3c" fill-rule="nonzero" stroke-linejoin="miter" d="M 118.151763 385.01832 L 484.471254 395.449575 L 484.471254 406.632276 L 118.151763 396.962354 Z M 118.151763 385.01832 " stroke="#0c3d3c" stroke-width="0.97" stroke-opacity="1" stroke-miterlimit="10"/><path stroke-linecap="butt" transform="matrix(0.395115, 0, 0, 0.395072, 171.671949, 56.51125)" fill-opacity="1" fill="#0c3d3c" fill-rule="nonzero" stroke-linejoin="miter" d="M 118.151763 425.032812 L 484.471254 439.844206 L 484.471254 451.017019 L 118.151763 436.966959 Z M 118.151763 425.032812 " stroke="#0c3d3c" stroke-width="0.97" stroke-opacity="1" stroke-miterlimit="10"/><path stroke-linecap="butt" transform="matrix(0.395115, 0, 0, 0.395072, 171.671949, 56.51125)" fill-opacity="1" fill="#0c3d3c" fill-rule="nonzero" stroke-linejoin="miter" d="M 118.151763 465.02753 L 484.471254 484.219062 L 484.471254 495.401763 L 118.151763 476.981451 Z M 118.151763 465.02753 " stroke="#0c3d3c" stroke-width="0.97" stroke-opacity="1" stroke-miterlimit="10"/><path stroke-linecap="butt" transform="matrix(0.395115, 0, 0, 0.395072, 171.671949, 56.51125)" fill-opacity="1" fill="#0c3d3c" fill-rule="nonzero" stroke-linejoin="miter" d="M 118.151763 505.042022 L 484.471254 528.613693 L 484.471254 539.786506 L 118.151763 516.976169 Z M 118.151763 505.042022 " stroke="#0c3d3c" stroke-width="0.97" stroke-opacity="1" stroke-miterlimit="10"/><path stroke-linecap="butt" transform="matrix(0.395115, 0, 0, 0.395072, 171.671949, 56.51125)" fill-opacity="1" fill="#0c3d3c" fill-rule="nonzero" stroke-linejoin="miter" d="M 118.151763 545.03674 L 484.471254 572.988549 L 484.471254 584.17125 L 118.151763 556.990662 Z M 118.151763 545.03674 " stroke="#0c3d3c" stroke-width="0.97" stroke-opacity="1" stroke-miterlimit="10"/><path stroke-linecap="butt" transform="matrix(0.395115, 0, 0, 0.395072, 171.671949, 56.51125)" fill-opacity="1" fill="#0c3d3c" fill-rule="nonzero" stroke-linejoin="miter" d="M 118.151763 585.051232 L 484.471254 617.383179 L 484.471254 628.555993 L 118.151763 596.985379 Z M 118.151763 585.051232 " stroke="#0c3d3c" stroke-width="0.97" stroke-opacity="1" stroke-miterlimit="10"/><path stroke-linecap="butt" transform="matrix(0.395115, 0, 0, 0.395072, 171.671949, 56.51125)" fill-opacity="1" fill="#0c3d3c" fill-rule="nonzero" stroke-linejoin="miter" d="M 118.151763 625.055837 L 484.471254 661.758035 L 484.471254 672.950624 L 118.151763 636.999872 Z M 118.151763 625.055837 " stroke="#0c3d3c" stroke-width="0.97" stroke-opacity="1" stroke-miterlimit="10"/><path stroke-linecap="butt" transform="matrix(0.395115, 0, 0, 0.395072, 171.671949, 56.51125)" fill-opacity="1" fill="#0c3d3c" fill-rule="nonzero" stroke-linejoin="miter" d="M 118.151763 665.060442 L 484.471254 706.152666 L 484.471254 717.32548 L 118.151763 677.014364 Z M 118.151763 665.060442 " stroke="#0c3d3c" stroke-width="0.97" stroke-opacity="1" stroke-miterlimit="10"/><path stroke-linecap="butt" transform="matrix(0.395115, 0, 0, 0.395072, 171.671949, 56.51125)" fill-opacity="1" fill="#0c3d3c" fill-rule="nonzero" stroke-linejoin="miter" d="M 118.151763 705.074935 L 484.471254 750.53741 L 484.471254 761.720111 L 118.151763 717.009082 Z M 118.151763 705.074935 " stroke="#0c3d3c" stroke-width="0.97" stroke-opacity="1" stroke-miterlimit="10"/><path stroke-linecap="round" transform="matrix(0.395115, 0, 0, 0.395072, 171.671949, 56.51125)" fill-opacity="1" fill="#ffffff" fill-rule="nonzero" stroke-linejoin="round" d="M 448.811135 773.871782 L 29.471066 722.061566 L 35.541295 151.031919 L 341.029981 138.4452 L 453.793863 248.433146 Z M 448.811135 773.871782 " stroke="#0c3d3c" stroke-width="1.39" stroke-opacity="1" stroke-miterlimit="4"/><path stroke-linecap="round" transform="matrix(0.395115, 0, 0, 0.395072, 171.671949, 56.51125)" fill-opacity="1" fill="#ffffff" fill-rule="nonzero" stroke-linejoin="round" d="M 444.006361 773.456509 L 24.666293 721.646294 L 30.736521 150.616646 L 336.225207 138.039815 L 448.989089 248.017873 Z M 444.006361 773.456509 " stroke="#0c3d3c" stroke-width="1.39" stroke-opacity="1" stroke-miterlimit="4"/><path stroke-linecap="round" transform="matrix(0.395115, 0, 0, 0.395072, 171.671949, 56.51125)" fill-opacity="1" fill="#ffffff" fill-rule="nonzero" stroke-linejoin="round" d="M 439.211474 773.041236 L 19.881292 721.240908 L 25.95152 150.211261 L 331.440206 137.63443 L 444.204089 247.612488 Z M 439.211474 773.041236 " stroke="#0c3d3c" stroke-width="1.39" stroke-opacity="1" stroke-miterlimit="4"/><path stroke-linecap="round" transform="matrix(0.395115, 0, 0, 0.395072, 171.671949, 56.51125)" fill-opacity="1" fill="#ffffff" fill-rule="nonzero" stroke-linejoin="round" d="M 434.416587 772.625963 L 15.076518 720.825636 L 21.146747 149.795988 L 326.635433 137.219157 L 439.399315 247.197215 Z M 434.416587 772.625963 " stroke="#0c3d3c" stroke-width="1.39" stroke-opacity="1" stroke-miterlimit="4"/><path stroke-linecap="round" transform="matrix(0.395115, 0, 0, 0.395072, 171.671949, 56.51125)" fill-opacity="1" fill="#ffffff" fill-rule="nonzero" stroke-linejoin="round" d="M 429.631586 772.220578 L 10.291518 720.42025 L 16.361746 149.390603 L 321.850432 136.813772 L 434.614314 246.79183 Z M 429.631586 772.220578 " stroke="#0c3d3c" stroke-width="1.39" stroke-opacity="1" stroke-miterlimit="4"/><path stroke-linecap="round" transform="matrix(0.395115, 0, 0, 0.395072, 171.671949, 56.51125)" fill-opacity="1" fill="#ffffff" fill-rule="nonzero" stroke-linejoin="round" d="M 424.826813 771.805305 L 5.486744 720.014865 L 11.556972 148.97533 L 317.045659 136.398499 L 429.809541 246.376557 Z M 424.826813 771.805305 " stroke="#0c3d3c" stroke-width="1.39" stroke-opacity="1" stroke-miterlimit="4"/><g clip-path="url(#273ec64a4f)"><path fill="#ffffff" d="M 337.632812 361.269531 L 171.945312 340.804688 L 174.34375 115.207031 L 295.050781 110.238281 L 339.605469 153.6875 Z M 337.632812 361.269531 " fill-opacity="1" fill-rule="nonzero"/></g><g clip-path="url(#e284f1b4eb)"><path stroke-linecap="round" transform="matrix(0.395115, 0, 0, 0.395072, 171.671949, 56.51125)" fill="none" stroke-linejoin="round" d="M 420.031925 771.39992 L 0.691857 719.599592 L 6.762085 148.569945 L 312.260658 135.993114 L 425.02454 245.971172 Z M 420.031925 771.39992 " stroke="#0c3d3c" stroke-width="1.39" stroke-opacity="1" stroke-miterlimit="4"/></g><path stroke-linecap="round" transform="matrix(0.395115, 0, 0, 0.395072, 171.671949, 56.51125)" fill-opacity="1" fill="#ffffff" fill-rule="nonzero" stroke-linejoin="round" d="M 312.260658 135.993114 L 311.430203 243.509198 L 425.02454 245.971172 Z M 312.260658 135.993114 " stroke="#0c3d3c" stroke-width="1.39" stroke-opacity="1" stroke-miterlimit="4"/><path stroke-linecap="round" transform="matrix(0.395115, 0, 0, 0.395072, 171.671949, 56.51125)" fill-opacity="1" fill="#0c3d3c" fill-rule="nonzero" stroke-linejoin="round" d="M 397.599763 317.002581 L 25.73402 307.075586 L 25.73402 274.753526 L 397.599763 278.99524 Z M 397.599763 317.002581 " stroke="#0c3d3c" stroke-width="1.35" stroke-opacity="1" stroke-miterlimit="4"/><path stroke-linecap="round" transform="matrix(0.395115, 0, 0, 0.395072, 171.671949, 56.51125)" fill-opacity="1" fill="#ffffff" fill-rule="nonzero" stroke-linejoin="round" d="M 24.527884 683.520303 L 395.276467 727.69741 " stroke="#0c3d3c" stroke-width="1.35" stroke-opacity="1" stroke-miterlimit="4"/><path stroke-linecap="round" transform="matrix(0.395115, 0, 0, 0.395072, 171.671949, 56.51125)" fill-opacity="1" fill="#ffffff" fill-rule="nonzero" stroke-linejoin="round" d="M 24.666293 641.686521 L 395.543399 682.066849 " stroke="#0c3d3c" stroke-width="1.35" stroke-opacity="1" stroke-miterlimit="4"/><path stroke-linecap="round" transform="matrix(0.395115, 0, 0, 0.395072, 171.671949, 56.51125)" fill-opacity="1" fill="#ffffff" fill-rule="nonzero" stroke-linejoin="round" d="M 24.804702 599.862626 L 395.790558 636.4264 " stroke="#0c3d3c" stroke-width="1.35" stroke-opacity="1" stroke-miterlimit="4"/><path stroke-linecap="round" transform="matrix(0.395115, 0, 0, 0.395072, 171.671949, 56.51125)" fill-opacity="1" fill="#ffffff" fill-rule="nonzero" stroke-linejoin="round" d="M 24.933225 558.038731 L 396.047603 590.795838 " stroke="#0c3d3c" stroke-width="1.35" stroke-opacity="1" stroke-miterlimit="4"/><path stroke-linecap="round" transform="matrix(0.395115, 0, 0, 0.395072, 171.671949, 56.51125)" fill-opacity="1" fill="#ffffff" fill-rule="nonzero" stroke-linejoin="round" d="M 25.071634 516.214836 L 396.314535 545.165277 " stroke="#0c3d3c" stroke-width="1.35" stroke-opacity="1" stroke-miterlimit="4"/><path stroke-linecap="round" transform="matrix(0.395115, 0, 0, 0.395072, 171.671949, 56.51125)" fill-opacity="1" fill="#ffffff" fill-rule="nonzero" stroke-linejoin="round" d="M 25.200156 474.381053 L 396.571581 499.534715 " stroke="#0c3d3c" stroke-width="1.35" stroke-opacity="1" stroke-miterlimit="4"/><path stroke-linecap="round" transform="matrix(0.395115, 0, 0, 0.395072, 171.671949, 56.51125)" fill-opacity="1" fill="#ffffff" fill-rule="nonzero" stroke-linejoin="round" d="M 25.328679 432.557158 L 396.828626 453.904153 " stroke="#0c3d3c" stroke-width="1.35" stroke-opacity="1" stroke-miterlimit="4"/><path stroke-linecap="round" transform="matrix(0.395115, 0, 0, 0.395072, 171.671949, 56.51125)" fill-opacity="1" fill="#ffffff" fill-rule="nonzero" stroke-linejoin="round" d="M 25.467088 390.733263 L 397.075785 408.263704 " stroke="#0c3d3c" stroke-width="1.35" stroke-opacity="1" stroke-miterlimit="4"/><path stroke-linecap="round" transform="matrix(0.395115, 0, 0, 0.395072, 171.671949, 56.51125)" fill-opacity="1" fill="#ffffff" fill-rule="nonzero" stroke-linejoin="round" d="M 25.595611 348.899481 L 397.342717 362.633143 " stroke="#0c3d3c" stroke-width="1.35" stroke-opacity="1" stroke-miterlimit="4"/><path stroke-linecap="round" transform="matrix(0.395115, 0, 0, 0.395072, 171.671949, 56.51125)" fill-opacity="1" fill="#ffffff" fill-rule="nonzero" stroke-linejoin="round" d="M 25.73402 307.075586 L 397.599763 317.002581 " stroke="#0c3d3c" stroke-width="1.35" stroke-opacity="1" stroke-miterlimit="4"/><path stroke-linecap="round" transform="matrix(0.395115, 0, 0, 0.395072, 171.671949, 56.51125)" fill-opacity="1" fill="#ffffff" fill-rule="nonzero" stroke-linejoin="round" d="M 395.760899 728.518068 L 397.827149 316.27091 " stroke="#0c3d3c" stroke-width="1.39" stroke-opacity="1" stroke-miterlimit="4"/><path stroke-linecap="round" transform="matrix(0.395115, 0, 0, 0.395072, 171.671949, 56.51125)" fill-opacity="1" fill="#ffffff" fill-rule="nonzero" stroke-linejoin="round" d="M 321.405546 719.391956 L 323.481682 310.34833 " stroke="#0c3d3c" stroke-width="1.39" stroke-opacity="1" stroke-miterlimit="4"/><path stroke-linecap="round" transform="matrix(0.395115, 0, 0, 0.395072, 171.671949, 56.51125)" fill-opacity="1" fill="#ffffff" fill-rule="nonzero" stroke-linejoin="round" d="M 247.060079 710.255956 L 249.126329 304.42575 " stroke="#0c3d3c" stroke-width="1.39" stroke-opacity="1" stroke-miterlimit="4"/><path stroke-linecap="round" transform="matrix(0.395115, 0, 0, 0.395072, 171.671949, 56.51125)" fill-opacity="1" fill="#ffffff" fill-rule="nonzero" stroke-linejoin="round" d="M 172.714612 701.129844 L 174.780863 298.513058 " stroke="#0c3d3c" stroke-width="1.39" stroke-opacity="1" stroke-miterlimit="4"/><path stroke-linecap="round" transform="matrix(0.395115, 0, 0, 0.395072, 171.671949, 56.51125)" fill-opacity="1" fill="#ffffff" fill-rule="nonzero" stroke-linejoin="round" d="M 98.359259 692.003732 L 100.42551 292.600365 " stroke="#0c3d3c" stroke-width="1.39" stroke-opacity="1" stroke-miterlimit="4"/><path stroke-linecap="round" transform="matrix(0.395115, 0, 0, 0.395072, 171.671949, 56.51125)" fill-opacity="1" fill="#ffffff" fill-rule="nonzero" stroke-linejoin="round" d="M 24.013793 682.867732 L 26.080043 286.677785 " stroke="#0c3d3c" stroke-width="1.39" stroke-opacity="1" stroke-miterlimit="4"/><path stroke-linecap="butt" transform="matrix(0.395115, 0, 0, 0.395072, 171.671949, 56.51125)" fill-opacity="1" fill="#76ce7a" fill-rule="nonzero" stroke-linejoin="miter" d="M 87.929144 259.240124 L 27.266407 258.043743 L 27.266407 168.156974 L 72.140619 166.723295 L 88.383917 182.562983 Z M 87.929144 259.240124 " stroke="#0c3d3c" stroke-width="0.99" stroke-opacity="1" stroke-miterlimit="10"/><path stroke-linecap="round" transform="matrix(0.395115, 0, 0, 0.395072, 171.671949, 56.51125)" fill-opacity="1" fill="#76ce7a" fill-rule="nonzero" stroke-linejoin="round" d="M 72.417437 166.723295 L 72.733801 182.582758 L 88.037894 182.375121 Z M 72.417437 166.723295 " stroke="#0c3d3c" stroke-width="0.99" stroke-opacity="1" stroke-miterlimit="4"/><g clip-path="url(#caeabc21b2)"><path stroke-linecap="butt" transform="matrix(0.395115, 0, 0, 0.395072, 171.671949, 56.51125)" fill="none" stroke-linejoin="miter" d="M 33.583794 197.690775 L 82.491643 196.860229 " stroke="#ffffff" stroke-width="2.92" stroke-opacity="1" stroke-miterlimit="10"/></g><g clip-path="url(#c1f701bfc3)"><path stroke-linecap="butt" transform="matrix(0.395115, 0, 0, 0.395072, 171.671949, 56.51125)" fill="none" stroke-linejoin="miter" d="M 33.583794 208.211017 L 82.491643 207.756194 " stroke="#ffffff" stroke-width="2.92" stroke-opacity="1" stroke-miterlimit="10"/></g><g clip-path="url(#0ca49bd900)"><path stroke-linecap="butt" transform="matrix(0.395115, 0, 0, 0.395072, 171.671949, 56.51125)" fill="none" stroke-linejoin="miter" d="M 33.583794 218.731259 L 82.491643 218.652159 " stroke="#ffffff" stroke-width="2.92" stroke-opacity="1" stroke-miterlimit="10"/></g><g clip-path="url(#bcd186dc2a)"><path stroke-linecap="butt" transform="matrix(0.395115, 0, 0, 0.395072, 171.671949, 56.51125)" fill="none" stroke-linejoin="miter" d="M 33.583794 229.251501 L 82.491643 229.538237 " stroke="#ffffff" stroke-width="2.92" stroke-opacity="1" stroke-miterlimit="10"/></g><g clip-path="url(#41d4e88bd1)"><path stroke-linecap="butt" transform="matrix(0.395115, 0, 0, 0.395072, 171.671949, 56.51125)" fill="none" stroke-linejoin="miter" d="M 33.583794 239.771743 L 82.491643 240.434202 " stroke="#ffffff" stroke-width="2.92" stroke-opacity="1" stroke-miterlimit="10"/></g><g clip-path="url(#ce5e439ecf)"><path stroke-linecap="butt" transform="matrix(0.395115, 0, 0, 0.395072, 171.671949, 56.51125)" fill="none" stroke-linejoin="miter" d="M 33.583794 250.301873 L 82.491643 251.32028 " stroke="#ffffff" stroke-width="2.92" stroke-opacity="1" stroke-miterlimit="10"/></g><path stroke-linecap="butt" transform="matrix(0.395115, 0, 0, 0.395072, 171.671949, 56.51125)" fill="none" stroke-linejoin="miter" d="M 81.048234 195.841822 L 81.048234 250.707258 " stroke="#ffffff" stroke-width="2.92" stroke-opacity="1" stroke-miterlimit="10"/><path stroke-linecap="butt" transform="matrix(0.395115, 0, 0, 0.395072, 171.671949, 56.51125)" fill="none" stroke-linejoin="miter" d="M 65.714481 196.31642 L 65.714481 250.707258 " stroke="#ffffff" stroke-width="2.92" stroke-opacity="1" stroke-miterlimit="10"/><path stroke-linecap="butt" transform="matrix(0.395115, 0, 0, 0.395072, 171.671949, 56.51125)" fill="none" stroke-linejoin="miter" d="M 50.360956 196.810792 L 50.360956 250.707258 " stroke="#ffffff" stroke-width="2.92" stroke-opacity="1" stroke-miterlimit="10"/><path stroke-linecap="butt" transform="matrix(0.395115, 0, 0, 0.395072, 171.671949, 56.51125)" fill="none" stroke-linejoin="miter" d="M 35.017317 197.295277 L 35.017317 250.707258 " stroke="#ffffff" stroke-width="2.92" stroke-opacity="1" stroke-miterlimit="10"/><path fill="#ffffff" d="M 184.941406 130.144531 L 203.789062 129.671875 L 203.722656 131.769531 L 184.941406 132.175781 Z M 184.941406 130.144531 " fill-opacity="1" fill-rule="nonzero"/><path fill="#0c3d3c" d="M 200.410156 128.644531 C 200.449219 128.605469 206.699219 134.175781 206.699219 134.175781 L 206.699219 128.558594 Z M 200.410156 128.644531 " fill-opacity="1" fill-rule="nonzero"/><path fill="#221f1f" d="M 84.640625 326.296875 L 84.640625 342.941406 L 101.175781 342.941406 " fill-opacity="0.35" fill-rule="nonzero"/><g clip-path="url(#3261206299)"><path fill="#107c42" d="M 107.660156 324.726562 L 80.789062 324.726562 C 78.367188 324.726562 76.371094 326.726562 76.371094 329.15625 L 76.371094 386.296875 C 76.371094 388.726562 78.367188 390.726562 80.789062 390.726562 L 119.78125 390.726562 C 122.203125 390.726562 124.199219 388.726562 124.199219 386.296875 L 124.199219 341.371094 Z M 107.660156 324.726562 " fill-opacity="1" fill-rule="nonzero"/></g><g clip-path="url(#cfe8de993c)"><path fill="#221f1f" d="M 107.660156 324.726562 L 107.660156 341.371094 L 124.199219 341.371094 " fill-opacity="0.35" fill-rule="nonzero"/></g><path fill="#ffffff" d="M 99.324219 347.65625 L 85.066406 347.65625 C 84.070312 347.65625 83.285156 346.871094 83.285156 345.871094 L 83.285156 333.796875 C 83.285156 332.796875 84.070312 332.011719 85.066406 332.011719 L 99.324219 332.011719 C 100.320312 332.011719 101.105469 332.796875 101.105469 333.796875 L 101.105469 345.796875 C 101.105469 346.871094 100.320312 347.65625 99.324219 347.65625 Z M 99.324219 347.65625 " fill-opacity="1" fill-rule="nonzero"/><path fill="#107c42" d="M 94.402344 344.796875 C 94.402344 344.796875 92.550781 341.511719 92.195312 340.941406 L 92.125 340.941406 C 91.839844 341.511719 91.554688 342.011719 91.054688 342.796875 L 89.914062 344.796875 L 87.417969 344.796875 L 90.839844 339.871094 L 87.703125 334.871094 L 90.269531 334.871094 C 90.269531 334.871094 91.980469 338.082031 92.265625 338.65625 L 92.335938 338.65625 C 92.621094 338.011719 94.476562 334.871094 94.476562 334.871094 L 96.828125 334.871094 L 93.621094 339.796875 L 96.898438 344.796875 Z M 94.402344 344.796875 " fill-opacity="1" fill-rule="nonzero"/><path fill="#ffffff" d="M 84.28125 357.796875 L 98.824219 357.796875 L 98.824219 361.871094 L 84.28125 361.871094 Z M 84.28125 357.796875 " fill-opacity="1" fill-rule="nonzero"/><path fill="#ffffff" d="M 84.28125 366.371094 L 98.824219 366.371094 L 98.824219 370.441406 L 84.28125 370.441406 Z M 84.28125 366.371094 " fill-opacity="1" fill-rule="nonzero"/><path fill="#ffffff" d="M 84.28125 374.941406 L 98.824219 374.941406 L 98.824219 379.011719 L 84.28125 379.011719 Z M 84.28125 374.941406 " fill-opacity="1" fill-rule="nonzero"/><path fill="#ffffff" d="M 101.675781 357.796875 L 116.214844 357.796875 L 116.214844 361.871094 L 101.675781 361.871094 Z M 101.675781 357.796875 " fill-opacity="1" fill-rule="nonzero"/><path fill="#ffffff" d="M 101.675781 366.371094 L 116.214844 366.371094 L 116.214844 370.441406 L 101.675781 370.441406 Z M 101.675781 366.371094 " fill-opacity="1" fill-rule="nonzero"/><path fill="#ffffff" d="M 101.675781 374.941406 L 116.214844 374.941406 L 116.214844 379.011719 L 101.675781 379.011719 Z M 101.675781 374.941406 " fill-opacity="1" fill-rule="nonzero"/></svg>